<?xml version="1.0" encoding="UTF-8" standalone="no"?>
<!-- Created with Inkscape (http://www.inkscape.org/) -->

<svg
   xmlns:dc="http://purl.org/dc/elements/1.1/"
   xmlns:cc="http://creativecommons.org/ns#"
   xmlns:rdf="http://www.w3.org/1999/02/22-rdf-syntax-ns#"
   xmlns:svg="http://www.w3.org/2000/svg"
   xmlns="http://www.w3.org/2000/svg"
   xmlns:sodipodi="http://sodipodi.sourceforge.net/DTD/sodipodi-0.dtd"
   xmlns:inkscape="http://www.inkscape.org/namespaces/inkscape"
   id="svg2816"
   version="1.1"
   inkscape:version="0.47 r22583"
   width="765"
   height="990"
   xml:space="preserve"
   sodipodi:docname="TELUS-Spark-Media-Kit20130205.pdf"><metadata
     id="metadata2822"><rdf:RDF><cc:Work
         rdf:about=""><dc:format>image/svg+xml</dc:format><dc:type
           rdf:resource="http://purl.org/dc/dcmitype/StillImage" /><dc:title></dc:title></cc:Work></rdf:RDF></metadata><defs
     id="defs2820"><inkscape:perspective
       sodipodi:type="inkscape:persp3d"
       inkscape:vp_x="0 : 0.5 : 1"
       inkscape:vp_y="0 : 1000 : 0"
       inkscape:vp_z="1 : 0.5 : 1"
       inkscape:persp3d-origin="0.5 : 0.33333333 : 1"
       id="perspective2824" /><clipPath
       clipPathUnits="userSpaceOnUse"
       id="clipPath2918"><path
         d="m 35.362,692.533 158.653,0 0,68.412 -158.653,0 0,-68.412 z"
         id="path2920" /></clipPath><clipPath
       clipPathUnits="userSpaceOnUse"
       id="clipPath3028"><path
         d="m 146.968,749.197 0,-33.071 0,-0.297 0,-0.67 0,-0.005 0,-0.167 0,-0.014 0,-0.14 0,-0.014 0,-0.139 0,-0.004 0,-0.211 0,-0.493 0,-0.006 0,-0.315 0,-0.211 0,-0.015 0,-0.32 0,-0.005 0,-0.125 0,-0.177 0,-0.004 0,-0.273 0,-1.638 0,-0.077 0,-0.004 0,-0.273 0,-0.02 0,-0.052 0,-0.01 0,-0.1 0,-0.005 0.349,0 0.005,0 0.173,0 0.019,0 0.244,0 0.014,0 0,0.005 0,-0.005 0.163,0 0.01,0 0.144,0 0.037,0 0.116,0 0.359,0 0.066,0 0.006,0 0.196,0 0.004,0 0.25,0 0.009,0 0.345,0 0.373,0 0.005,0 0.407,0 0.221,0 0.023,0 0.005,0 0.014,0 0.408,0 0.009,0 0.364,0 0.201,0 0.01,0 0.397,0 0.082,0 0.225,0 0.072,0 0.004,0 1.566,0 0.005,0 0.057,0 0.048,0 0.167,0 0.005,0 0,7.494 0,0.354 0,0.191 3.007,3.141 0.244,0.259 0.005,0 -0.005,0.005 0.254,0.258 0.071,0.076 0.072,-0.124 0.006,-0.01 0.416,-0.708 1.182,-1.996 -0.004,0 0.268,-0.456 0.004,0 1.356,-2.307 0,0.004 0.311,-0.526 0.005,0 0.019,-0.038 0.21,-0.365 0.006,-0.004 0.2,-0.34 0.005,-0.009 0.187,-0.312 -0.004,0 0.287,-0.484 0,0.006 0.268,-0.465 0.417,-0.699 0.444,-0.747 -0.004,-0.005 0.435,-0.732 0.561,-0.953 0.296,-0.508 0.796,0 0.871,0 0.182,0 0.004,0 0.536,0 0.374,0 0.043,0 0.005,0 0.053,0 0.009,0 0.416,0 0.245,0 0.106,0 0.186,0 0.134,0 0.01,0 0.593,0 0.01,0 4.558,0 -2.513,3.893 -0.053,0.086 -0.288,0.441 -0.397,0.612 -2.116,3.28 0.004,-0.009 -0.167,0.253 0.004,0 -2.317,3.581 -0.129,0.197 -0.004,0.01 -1.131,1.747 -1.345,2.083 -0.57,0.877 0.302,0.31 0,0.005 0.9,0.939 1.977,2.068 0.115,0.12 0.805,0.847 0.01,0.005 0.004,0.005 0.091,0.101 0.004,0 0,0.004 0.082,0.082 0.192,0.201 0.282,0.297 0.01,0.009 0.852,0.891 0.12,0.124 0.91,0.953 0.018,0.024 0.005,0 0,0.005 0.852,0.89 0.006,0 0.258,0.278 0.004,0 0,0.005 0.211,0.22 0.005,0 0,0.005 0.335,0.35 0.091,0.091 0.006,0.004 -0.006,0 1.992,2.083 -2.561,0 -0.8,0 -0.034,0 -0.004,0 -0.494,0 -0.44,0 -0.627,0 -0.005,0 -0.182,0 -0.005,0 -0.038,0 -0.038,0 -0.005,0 -0.307,0 -0.268,0 -0.004,0 -0.124,0 -0.015,0 -0.206,0 -0.598,0 -0.01,0 -0.182,0 -0.01,0 -0.335,0 -0.024,0 -0.038,0 -0.316,0 -2.227,0 -1.278,-1.412 0,-0.005 -0.278,-0.307 0,0.005 -0.292,-0.325 -0.029,-0.034 -0.004,-0.005 -0.517,-0.57 -0.278,-0.311 0.004,0.01 -0.31,-0.345 -0.317,-0.354 -0.004,-0.005 -0.738,-0.819 0,0.005 -0.406,-0.45 -0.188,-0.211 -0.004,0 -0.01,-0.009 -0.004,-0.005 -0.058,-0.067 -0.019,-0.024 0,0.005 -0.01,-0.014 -0.01,-0.01 -0.009,-0.015 -0.047,-0.053 -0.006,0 0,-0.004 -0.593,-0.656 0,0.005 -0.177,-0.196 -0.006,-0.01 -0.181,-0.202 -0.139,-0.153 -0.062,-0.072 -0.019,-0.019 0.004,0 -0.268,-0.291 -0.004,-0.006 -0.46,-0.507 -0.153,-0.167 -0.302,-0.335 -0.038,-0.043 -0.005,-0.005 -0.086,-0.096 -0.019,-0.019 0.004,0 -0.268,-0.297 -0.004,0 -0.01,-0.01 -0.043,-0.052 0,0.004 -0.158,-0.177 -0.005,-0.005 -0.187,-0.206 -0.359,-0.402 -0.005,0 -0.114,-0.129 -0.273,-0.301 -0.01,-0.01 -0.287,-0.321 -0.02,-0.019 0.005,0 -0.11,-0.12 0,0.067 0,0.01 0,0.311 0,0.258 0,0.006 0,0.191 0,0.005 0,0.101 0,0.009 0,0.435 0,0.006 0,0.105 0,0.014 0,2.15 0,0.459 0,0.019 0,0.097 0,0.004 0,0.086 0,0.015 0,0.263 0,0.579 0,0.192 0,0.004 0,0.217 0,0.421 0,0.004 0,0.398 0,0.005 0,0.383 0,0.014 0,0.311 0,0.005 0,0.158 0,0.019 0,0.819 0,0.569 0,0.115 0,0.207 0,0.78 0,0.115 0,0.488 0,0.005 0,0.421 0,0.388 0,0.009 0,0.834 0,0.191 0,0.01 0,0.115 0,0.004 0,0.493 0,0.015 0,0.139 0,0.005 0,0.138 0,0.005 0,0.092 0,0.004 0,0.498 0,0.005 0,0.158 0,0.11 0,0.005 0,0.029 0,0.043 0,0.526 0,0.015 0,0.339 0,0.006 0,0.531 0,0.005 0,5.482 -7.177,0 z m -95.157,-0.196 -0.004,0 -0.111,0 c -0.277,0 -0.55,-0.005 -0.824,-0.01 l 0,0 -0.004,0 c -0.22,-0.009 -0.431,-0.019 -0.646,-0.034 l 0,0 -0.015,0 c -0.072,-0.004 -0.148,-0.009 -0.22,-0.014 l 0,0 c -0.087,-0.004 -0.172,-0.014 -0.258,-0.024 l 0,0 -0.025,0 c -0.1,-0.005 -0.2,-0.015 -0.301,-0.024 l 0,0 -0.005,0 c -0.053,-0.004 -0.1,-0.01 -0.154,-0.014 l 0,0 -0.099,-0.014 -0.006,0 c -0.071,-0.01 -0.133,-0.015 -0.205,-0.025 l 0,0 -0.006,0 c -0.186,-0.023 -0.368,-0.047 -0.555,-0.076 l 0,0 -0.004,0.004 -0.005,-0.004 -0.005,0 c -0.043,-0.005 -0.086,-0.015 -0.129,-0.019 l 0,0 -0.024,-0.005 -0.005,0 c -0.076,-0.01 -0.148,-0.019 -0.225,-0.034 l 0,0 -0.005,0 c -0.225,-0.038 -0.436,-0.076 -0.651,-0.119 l 0,0 c -0.229,-0.048 -0.455,-0.096 -0.675,-0.149 l 0,0 -0.005,0 c -0.296,-0.071 -0.599,-0.148 -0.88,-0.234 l 0,0 0,0.005 -0.006,-0.005 -0.004,0 -0.015,-0.005 -0.004,0 c -0.049,-0.015 -0.091,-0.028 -0.14,-0.043 l 0,0 C 45.424,748.105 45.257,748.052 45.094,748 l 0,0 c -0.125,-0.043 -0.244,-0.091 -0.369,-0.134 l 0,0 -0.019,-0.005 0.004,0 c -0.071,-0.029 -0.147,-0.053 -0.219,-0.082 l 0,0 -0.044,-0.014 -0.004,0 -0.034,-0.014 c -0.153,-0.063 -0.306,-0.125 -0.45,-0.187 l 0,0 -0.009,-0.004 -0.006,0 c -0.109,-0.049 -0.215,-0.096 -0.325,-0.149 l 0,0 c -0.55,-0.254 -1.072,-0.532 -1.561,-0.838 l 0,0 c -0.062,-0.043 -0.12,-0.081 -0.186,-0.119 l 0,0 -0.006,-0.006 c -0.148,-0.1 -0.296,-0.2 -0.44,-0.301 l 0,0 c -0.148,-0.11 -0.292,-0.221 -0.436,-0.331 l 0,0 c -0.081,-0.066 -0.162,-0.134 -0.243,-0.2 l 0,0 c -0.192,-0.159 -0.374,-0.322 -0.547,-0.489 l 0,0 -0.01,-0.01 -0.062,-0.062 -0.009,-0.009 -0.101,-0.101 -0.004,-0.004 -0.005,-0.006 -0.129,-0.134 -0.006,-0.004 c -0.062,-0.062 -0.109,-0.12 -0.167,-0.182 l 0,0 c -0.148,-0.163 -0.292,-0.33 -0.426,-0.503 l 0,0 -0.01,-0.009 c -0.062,-0.082 -0.129,-0.168 -0.191,-0.249 l 0,0 -0.019,-0.025 0.004,0.006 -0.004,-0.01 -0.005,-0.01 -0.005,0 0,-0.005 -0.029,-0.038 -0.004,-0.005 -0.096,-0.134 -0.014,-0.023 -0.006,-0.006 c -0.043,-0.066 -0.09,-0.128 -0.134,-0.191 l 0,0 0,-0.005 c -0.043,-0.062 -0.076,-0.124 -0.114,-0.186 l 0,0 -0.005,0 0,-0.006 -0.019,-0.028 c -0.025,-0.038 -0.052,-0.081 -0.072,-0.125 l 0,0 -0.005,0 0,-0.004 -0.004,-0.006 c -0.068,-0.109 -0.13,-0.225 -0.192,-0.334 l 0,0 0,-0.005 -0.004,-0.005 -0.01,-0.019 c -0.244,-0.455 -0.45,-0.924 -0.618,-1.412 l 0,0 c -0.067,-0.196 -0.125,-0.398 -0.182,-0.599 l 0,0 c -0.139,-0.517 -0.24,-1.048 -0.292,-1.603 l 0,0 0,-0.006 c -0.004,-0.043 -0.004,-0.081 -0.01,-0.124 l 0,0 c 0,-0.019 -0.004,-0.043 -0.004,-0.062 l 0,0 0,-0.006 c -0.005,-0.037 -0.005,-0.071 -0.01,-0.109 l 0,0 c -0.019,-0.24 -0.029,-0.489 -0.029,-0.738 l 0,0 c 0,-0.086 0.005,-0.167 0.005,-0.253 l 0,0 0,-0.025 0,-0.004 0,0.004 0.005,-0.033 c 0.019,-0.919 0.134,-1.762 0.335,-2.532 l 0,0 c 0,-0.006 0,-0.01 0.005,-0.02 l 0,0 c 0.009,-0.038 0.019,-0.071 0.029,-0.11 l 0,0 c 0,-0.01 0.004,-0.024 0.009,-0.033 l 0,0 c 0.01,-0.034 0.02,-0.068 0.029,-0.101 l 0,0 c 0,-0.015 0.005,-0.029 0.009,-0.043 l 0,0 c 0.01,-0.034 0.019,-0.067 0.029,-0.096 l 0,0 c 0.005,-0.014 0.009,-0.029 0.015,-0.043 l 0,0 c 0.009,-0.029 0.019,-0.062 0.029,-0.095 l 0,0 c 0.153,-0.475 0.339,-0.92 0.555,-1.337 l 0,0 0,-0.004 0.004,0 c 0.005,-0.015 0.01,-0.025 0.019,-0.039 l 0,0 c 0.02,-0.043 0.039,-0.086 0.063,-0.124 l 0,0 c 0.162,-0.297 0.34,-0.58 0.531,-0.848 l 0,0 0.01,-0.014 0.052,-0.072 0.006,-0.005 0.009,-0.014 c 0.967,-1.312 2.279,-2.318 3.801,-3.103 l 0,0 c 0.077,-0.038 0.144,-0.076 0.221,-0.11 l 0,0 0.004,0 0.006,-0.005 0,0.005 c 0.014,-0.009 0.029,-0.014 0.043,-0.024 l 0,0 c 0.004,0 0.009,-0.004 0.009,-0.004 l 0,0 c 0.369,-0.182 0.747,-0.355 1.139,-0.513 l 0,0 0.006,0 0.066,-0.034 0.005,0 c 0.092,-0.033 0.173,-0.066 0.264,-0.1 l 0,0 0.004,0 0.005,-0.005 0,0.005 c 0.091,-0.038 0.182,-0.077 0.273,-0.11 l 0,0 0.005,0 0.096,-0.038 0.023,-0.01 c 0.159,-0.058 0.316,-0.11 0.475,-0.163 l 0,0 c 0.459,-0.157 0.924,-0.301 1.397,-0.44 l 0,0 0.01,0 0.134,-0.039 c 0.087,-0.023 0.163,-0.047 0.244,-0.066 l 0,0 0.01,0 0.005,-0.006 0.005,0 c 0.071,-0.023 0.148,-0.043 0.22,-0.062 l 0,0 0.01,0 c 0.191,-0.052 0.377,-0.1 0.565,-0.148 l 0,0 c 0.244,-0.062 0.493,-0.12 0.741,-0.172 l 0,0 c 0.043,-0.014 0.091,-0.024 0.134,-0.034 l 0,0 0.01,0 0.01,-0.005 c 0.005,0 0.014,0 0.019,-0.004 l 0,0 c 0.105,-0.025 0.206,-0.048 0.312,-0.072 l 0,0 0.004,0 0.004,-0.005 0,0.005 c 0.091,-0.025 0.178,-0.044 0.269,-0.062 l 0,0 c 0.062,-0.015 0.119,-0.025 0.182,-0.039 l 0,0 -0.005,0 0.029,-0.005 0.105,-0.024 0.005,0 c 0.062,-0.014 0.134,-0.029 0.196,-0.042 l 0,0 0.01,0 c 0.105,-0.024 0.21,-0.043 0.32,-0.068 l 0,0 0.01,0 0.004,-0.004 0.092,-0.015 -0.005,-0.005 0.014,0 c 0.173,-0.033 0.35,-0.071 0.522,-0.105 l 0,0 c 0.077,-0.015 0.153,-0.029 0.235,-0.043 l 0,0 0.12,-0.024 -0.006,-0.004 0.02,0 0.009,-0.006 c 0.235,-0.043 0.45,-0.091 0.671,-0.138 l 0,0 c 0.053,-0.01 0.101,-0.019 0.153,-0.029 l 0,0 0.139,-0.029 0.005,0 0.004,0 0.006,-0.005 0,0.005 0.052,-0.014 0.01,0 0.004,-0.005 0.125,-0.024 0.019,-0.005 c 0.077,-0.019 0.149,-0.033 0.225,-0.053 l 0,0 0.062,-0.014 -0.004,0 0.038,-0.005 0,-0.004 0.014,0 c 0.144,-0.029 0.287,-0.062 0.431,-0.101 l 0,0 c 0.206,-0.048 0.397,-0.091 0.594,-0.144 l 0,0 0.019,-0.005 c 0.11,-0.028 0.221,-0.057 0.326,-0.086 l 0,0 c 0.153,-0.038 0.306,-0.076 0.45,-0.12 l 0,0 c 0.31,-0.085 0.603,-0.172 0.881,-0.258 l 0,0 0.014,-0.004 c 0.125,-0.044 0.234,-0.082 0.354,-0.12 l 0,0 0.006,0 0.009,-0.006 c 0.053,-0.018 0.115,-0.037 0.167,-0.056 l 0,0 0.034,-0.01 -0.005,0 0.028,-0.01 0.006,0 c 0.091,-0.033 0.176,-0.067 0.267,-0.1 l 0,0 0.043,-0.014 -0.004,0 0.019,-0.006 0.005,-0.004 0.005,0 c 0.062,-0.024 0.119,-0.048 0.177,-0.072 l 0,0 0.014,-0.005 0.048,-0.019 0.067,-0.024 0.014,-0.004 0,-0.006 0.005,0 0.12,-0.048 0.005,0 0.004,-0.004 0,0.004 c 0.144,-0.062 0.274,-0.124 0.408,-0.186 l 0,0 c 0.062,-0.029 0.124,-0.057 0.186,-0.086 l 0,0 0.005,0 0.005,-0.005 c 0.1,-0.048 0.191,-0.096 0.283,-0.144 l 0,0 0.004,0 0.005,-0.004 c 0.072,-0.039 0.148,-0.082 0.216,-0.125 l 0,0 0.114,-0.057 0,-0.005 0.005,0 c 0.115,-0.072 0.216,-0.139 0.321,-0.211 l 0,0 0,-0.005 0.004,0 0.12,-0.081 0.01,-0.009 0.115,-0.087 0.009,-0.004 0.029,-0.029 0.005,0 c 0.172,-0.14 0.325,-0.283 0.465,-0.427 l 0,0 -0.006,-0.004 0.01,-0.01 0.005,-0.005 0.019,-0.018 0.005,-0.006 0,-0.004 0,0.004 c 0.043,-0.052 0.091,-0.095 0.134,-0.148 l 0,0 0,-0.005 0.005,0 0.004,-0.01 0,0.006 c 0.078,-0.106 0.144,-0.202 0.211,-0.307 l 0,0 0.01,-0.019 0,0.004 0.024,-0.038 -0.005,-0.004 0.005,0 0.004,-0.01 c 0.039,-0.067 0.068,-0.138 0.101,-0.206 l 0,0 c 0.087,-0.186 0.158,-0.374 0.206,-0.574 l 0,0 -0.005,0 0.019,-0.101 0.014,-0.086 0,-0.005 c 0.02,-0.096 0.034,-0.182 0.039,-0.278 l 0,0 0,-0.005 c 0.004,-0.052 0.01,-0.105 0.01,-0.158 l 0,0 0,-0.009 c 0.004,-0.057 0.009,-0.115 0.009,-0.167 l 0,0 c 0,-0.111 -0.015,-0.206 -0.024,-0.307 l 0,0 -0.01,-0.124 -0.009,-0.125 c -0.019,-0.139 -0.048,-0.273 -0.081,-0.402 l 0,0 -0.034,-0.144 0,-0.004 c -0.01,-0.044 -0.02,-0.082 -0.029,-0.12 l 0,0 -0.009,-0.029 c -0.081,-0.254 -0.201,-0.489 -0.331,-0.709 l 0,0 0,-0.005 -0.004,-0.004 c -0.039,-0.068 -0.077,-0.13 -0.12,-0.192 l 0,0 c -0.048,-0.067 -0.091,-0.138 -0.144,-0.206 l 0,0 -0.004,-0.009 c -0.235,-0.302 -0.508,-0.58 -0.819,-0.823 l 0,0 -0.015,-0.01 c -0.163,-0.13 -0.335,-0.25 -0.516,-0.359 l 0,0 -0.01,-0.01 -0.096,-0.053 -0.072,-0.043 -0.005,0 0,-0.004 -0.009,-0.006 c -0.216,-0.124 -0.446,-0.239 -0.685,-0.349 l 0,0 c -0.086,-0.038 -0.172,-0.082 -0.258,-0.115 l 0,0 -0.025,-0.009 c -0.421,-0.173 -0.871,-0.317 -1.335,-0.437 l 0,0 c -0.043,-0.014 -0.091,-0.023 -0.139,-0.033 l 0,0 -0.014,-0.004 -0.006,0 c -0.196,-0.048 -0.392,-0.096 -0.584,-0.13 l 0,0 -0.014,-0.004 -0.005,0 c -0.066,-0.01 -0.124,-0.019 -0.186,-0.034 l 0,0 -0.029,-0.005 c -0.129,-0.024 -0.259,-0.043 -0.388,-0.067 l 0,0 -0.005,0.005 -0.005,-0.005 -0.004,0 c -0.379,-0.053 -0.761,-0.096 -1.149,-0.119 l 0,0 -0.005,0 -0.096,-0.01 -0.005,0 -0.115,-0.009 -0.019,0 c -0.095,-0.006 -0.196,-0.01 -0.297,-0.015 l 0,0 -0.01,0 c -0.229,-0.01 -0.464,-0.02 -0.689,-0.02 l 0,0 c -0.153,0 -0.301,0.01 -0.454,0.02 l 0,0 c -0.101,0.005 -0.192,0.005 -0.288,0.009 l 0,0 -0.005,0 -0.071,0.01 -0.02,0 c -0.191,0.015 -0.382,0.033 -0.574,0.062 l 0,0 c -0.053,0.005 -0.101,0.015 -0.153,0.025 l 0,0 c -0.115,0.014 -0.231,0.037 -0.345,0.057 l 0,0 -0.02,0.005 -0.066,0.009 -0.062,0.01 c -0.053,0.009 -0.097,0.019 -0.149,0.028 l 0,0 -0.004,0 -0.006,0.005 0,-0.005 c -0.143,0.034 -0.282,0.072 -0.425,0.106 l 0,0 c -0.111,0.028 -0.221,0.057 -0.331,0.091 l 0,0 -0.067,0.018 -0.015,0.006 -0.095,0.029 -0.005,0.004 -0.005,0 -0.091,0.029 -0.004,0 -0.006,0.005 -0.128,0.038 c -0.116,0.038 -0.225,0.077 -0.331,0.12 l 0,0 -0.005,0 -0.009,0.004 c -0.062,0.019 -0.115,0.048 -0.173,0.068 l 0,0 0,0.004 -0.009,0.005 -0.039,0.014 -0.004,0 -0.005,0.006 c -0.129,0.052 -0.259,0.105 -0.383,0.162 l 0,0 -0.005,0 -0.009,0.005 c -0.097,0.043 -0.192,0.091 -0.283,0.143 l 0,0 -0.004,0 -0.12,0.062 c -0.082,0.043 -0.168,0.087 -0.25,0.134 l 0,0 c -0.143,0.082 -0.278,0.169 -0.416,0.26 l 0,0 c -0.129,0.085 -0.259,0.177 -0.383,0.272 l 0,0 -0.005,0.005 c -0.11,0.082 -0.215,0.158 -0.321,0.245 l 0,0 -0.005,0.004 0.005,0 -0.014,0.01 c -0.072,0.062 -0.139,0.129 -0.21,0.196 l 0,0 -0.006,0.005 -0.081,0.076 -0.004,0.005 c -0.106,0.1 -0.211,0.21 -0.307,0.316 l 0,0 -0.005,0.005 c -0.048,0.058 -0.091,0.105 -0.138,0.163 l 0,0 -0.006,0.004 c -0.316,0.378 -0.584,0.795 -0.794,1.245 l 0,0 -0.005,0.01 0,0.005 c -0.058,0.125 -0.111,0.249 -0.158,0.378 l 0,0 c -0.081,0.206 -0.149,0.416 -0.201,0.641 l 0,0 c -0.015,0.063 -0.024,0.134 -0.039,0.202 l 0,0 0,0.004 -0.009,0.039 0,0.004 c -0.014,0.063 -0.029,0.12 -0.038,0.187 l 0,0 0,0.005 c -0.015,0.081 -0.029,0.163 -0.044,0.244 l 0,0 0.006,0 -0.006,0.005 0,0.005 c -0.009,0.086 -0.009,0.172 -0.014,0.258 l 0,0 0,0.01 c -0.005,0.091 -0.015,0.191 -0.019,0.287 l 0,0 c 0,0.062 -0.01,0.12 -0.01,0.182 l 0,0 0,0.005 -0.153,0 -0.004,0 -0.072,0 -0.211,0 -0.613,0 -0.01,0 -0.163,0 -0.167,0 -0.005,0 -0.024,0 -0.349,0 -0.01,0 -0.114,0 -0.599,0 -0.01,0 -0.172,0 -0.129,0 -1.437,0 -0.086,0 -0.355,0 -2.493,0 0,-0.005 c 0,-0.862 0.071,-1.676 0.21,-2.446 l 0,0 0,-0.01 c 0.043,-0.254 0.1,-0.508 0.158,-0.752 l 0,0 c 0.115,-0.474 0.259,-0.928 0.426,-1.369 l 0,0 0,-0.005 c 0.033,-0.086 0.062,-0.167 0.096,-0.249 l 0,0 c 0.009,-0.024 0.019,-0.048 0.028,-0.072 l 0,0 c 0.034,-0.081 0.068,-0.158 0.101,-0.24 l 0,0 c 0.029,-0.066 0.062,-0.134 0.091,-0.2 l 0,0 c 0.072,-0.159 0.143,-0.312 0.225,-0.465 l 0,0 0.019,-0.038 0,0.005 c 0.019,-0.039 0.039,-0.072 0.058,-0.111 l 0,0 c 0.158,-0.296 0.325,-0.578 0.503,-0.852 l 0,0 c 0.019,-0.029 0.033,-0.052 0.052,-0.076 l 0,0 c 0.01,-0.019 0.024,-0.034 0.033,-0.053 l 0,0 0.006,-0.005 0,-0.005 c 0.072,-0.1 0.138,-0.2 0.21,-0.297 l 0,0 0,-0.004 c 0.043,-0.058 0.081,-0.11 0.124,-0.167 l 0,0 c 0.034,-0.049 0.072,-0.091 0.106,-0.14 l 0,0 c 0.014,-0.019 0.028,-0.038 0.043,-0.057 l 0,0 c 0.004,-0.005 0.01,-0.01 0.014,-0.019 l 0,0 c 0.034,-0.044 0.067,-0.081 0.101,-0.125 l 0,0 0.005,-0.004 c 0.067,-0.086 0.138,-0.168 0.206,-0.249 l 0,0 c 0.047,-0.053 0.095,-0.11 0.143,-0.163 l 0,0 c 0.029,-0.034 0.063,-0.072 0.096,-0.11 l 0,0 0.005,0 c 0.028,-0.033 0.057,-0.062 0.086,-0.096 l 0,0 c 0.038,-0.043 0.077,-0.086 0.12,-0.129 l 0,0 c 0.023,-0.024 0.047,-0.048 0.072,-0.077 l 0,0 c 0.095,-0.096 0.191,-0.187 0.287,-0.282 l 0,0 c 0.038,-0.039 0.076,-0.072 0.115,-0.111 l 0,0 c 0.067,-0.062 0.134,-0.124 0.201,-0.186 l 0,0 0.01,-0.005 0,-0.005 0.004,0 0.052,-0.048 0.006,-0.004 c 0.124,-0.111 0.244,-0.216 0.373,-0.322 l 0,0 c 0.465,-0.382 0.967,-0.732 1.484,-1.053 l 0,0 c 0.044,-0.024 0.087,-0.053 0.13,-0.076 l 0,0 c 0.009,-0.006 0.014,-0.01 0.019,-0.01 l 0,0 0,-0.005 0.004,0 0.006,-0.004 c 0.052,-0.029 0.1,-0.063 0.153,-0.092 l 0,0 0.014,-0.009 0.043,-0.019 0,-0.005 0.1,-0.058 c 0.058,-0.029 0.111,-0.062 0.168,-0.091 l 0,0 c 0.014,-0.009 0.034,-0.019 0.048,-0.028 l 0,0 c 0.105,-0.057 0.211,-0.115 0.316,-0.168 l 0,0 c 0.248,-0.129 0.502,-0.248 0.756,-0.363 l 0,0 c 0.231,-0.106 0.464,-0.202 0.699,-0.297 l 0,0 0.005,-0.005 c 0.245,-0.096 0.489,-0.187 0.732,-0.274 l 0,0 0.015,-0.004 0.058,-0.019 0.005,0 0.009,-0.004 c 0.053,-0.015 0.115,-0.035 0.167,-0.058 l 0,0 c 1.964,-0.642 4.056,-0.958 6.105,-0.958 l 0,0 c 0.781,0 1.537,0.034 2.274,0.096 l 0,0 0.006,0 c 0.976,0.082 1.905,0.21 2.786,0.398 l 0,0 0.019,0 -0.004,0.004 c 0.22,0.038 0.435,0.087 0.646,0.139 l 0,0 0.004,0 c 6.144,1.494 9.854,5.52 9.854,11.204 l 0,0 c 0,7.081 -4.769,9.542 -12.487,11.28 l 0,0 -0.009,0 c -0.082,0.019 -0.173,0.039 -0.254,0.058 l 0,0 -0.01,0 -0.004,0.005 0,-0.005 c -0.599,0.134 -1.207,0.263 -1.844,0.392 l 0,0 c -0.35,0.072 -0.68,0.144 -1.006,0.211 l 0,0 -0.004,0 -0.01,0.004 0,-0.004 c -0.1,0.024 -0.196,0.048 -0.296,0.072 l 0,0 -0.006,0 c -3.993,0.886 -6.157,1.709 -6.779,3.327 l 0,0 0,0.006 -0.005,-0.006 -0.043,0.125 -0.005,0.009 0,0.006 c -0.096,0.296 -0.148,0.612 -0.148,0.966 l 0,0 c 0,2.821 3.404,4.281 7.124,4.334 l 0,0 0.005,0 c 0.067,0 0.129,0.004 0.196,0.004 l 0,0 0,0.005 0,-0.005 0.02,0 c 1.915,-0.004 3.494,-0.44 4.692,-1.187 l 0,0 c 0.081,-0.053 0.167,-0.105 0.249,-0.163 l 0,0 0.115,-0.082 c 0.052,-0.037 0.105,-0.076 0.153,-0.114 l 0,0 c 0.172,-0.134 0.335,-0.273 0.488,-0.421 l 0,0 0.014,-0.014 0.091,-0.091 c 0.455,-0.47 0.805,-1.011 1.05,-1.6 l 0,0 0.004,-0.014 0.048,-0.12 c 0.072,-0.187 0.134,-0.379 0.187,-0.579 l 0,0 -0.006,0 0.034,-0.125 0.024,-0.11 -0.004,0 0.019,-0.105 0,-0.005 c 0.014,-0.091 0.033,-0.177 0.043,-0.273 l 0,0 c 0.01,-0.057 0.014,-0.115 0.019,-0.177 l 0,0 0.005,-0.076 0,-0.01 c 0.009,-0.096 0.013,-0.197 0.019,-0.292 l 0,0 0,-0.005 0.004,-0.135 0,-0.004 0.254,0 1.37,0 0.861,0 0.006,0 0.234,0 0.01,0 0.091,0 0.177,0 0.023,0 0.068,0 0.009,0 0.268,0 0.02,0 0.038,0 0.024,0 0.464,0 0.005,0 0.129,0 0.005,0 1.139,0 0.159,0 0.45,0 0.406,0 0.068,0 0.124,0 0.019,0 0.091,0 0.139,0 0.522,0 0.005,0 -0.005,0.043 0,0.005 0,0.134 c -0.005,0.173 -0.009,0.345 -0.019,0.522 l 0,0 0,0.004 c -0.005,0.068 -0.009,0.134 -0.015,0.206 l 0,0 0,0.01 c -0.004,0.053 -0.009,0.11 -0.014,0.158 l 0,0 0,0.005 c -0.005,0.052 -0.009,0.1 -0.015,0.153 l 0,0 c -0.009,0.081 -0.019,0.158 -0.028,0.235 l 0,0 0,0.005 c -0.019,0.153 -0.043,0.301 -0.067,0.454 l 0,0 0,0.01 c -0.01,0.058 -0.019,0.115 -0.029,0.172 l 0,0 0,0.005 c -0.326,1.81 -1.073,3.586 -2.27,5.137 l 0,0 -0.004,0.005 c -0.077,0.101 -0.149,0.197 -0.23,0.297 l 0,0 c -0.158,0.187 -0.325,0.373 -0.493,0.555 l 0,0 c -0.101,0.111 -0.196,0.212 -0.301,0.317 l 0,0 -0.006,0.005 -0.004,0.004 c -0.053,0.053 -0.106,0.096 -0.159,0.149 l 0,0 -0.009,0.01 c -0.441,0.421 -0.924,0.818 -1.45,1.182 l 0,0 c -0.082,0.058 -0.163,0.114 -0.245,0.167 l 0,0 -0.005,0 -0.004,0.005 -0.015,0.01 c -0.253,0.163 -0.512,0.326 -0.78,0.474 l 0,0 -0.005,0.005 -0.005,0 -0.076,0.043 -0.005,0.004 c -0.048,0.025 -0.105,0.053 -0.158,0.077 l 0,0 0,0.005 -0.077,0.038 0,0.005 -0.004,-0.005 c -0.063,0.039 -0.13,0.077 -0.197,0.11 l 0,0 -0.009,0.005 c -0.106,0.058 -0.221,0.101 -0.331,0.158 l 0,0 -0.005,0 -0.11,0.053 -0.057,0.029 -0.005,0 c -0.258,0.119 -0.526,0.229 -0.8,0.335 l 0,0 -0.005,0 -0.004,0.005 0,-0.005 c -0.072,0.028 -0.144,0.053 -0.22,0.081 l 0,0 c -0.306,0.11 -0.618,0.211 -0.944,0.306 l 0,0 -0.004,0 c -0.182,0.053 -0.359,0.101 -0.546,0.149 l 0,0 -0.081,0.019 -0.01,0 0,0.005 -0.005,-0.005 -0.057,0.02 c -0.293,0.071 -0.589,0.134 -0.9,0.19 l 0,0 -0.01,0 c -0.135,0.029 -0.273,0.049 -0.412,0.072 l 0,0 -0.082,0.015 -0.119,0.014 -0.019,0.005 c -0.144,0.02 -0.287,0.043 -0.436,0.063 l 0,0 -0.004,0 c -0.183,0.023 -0.359,0.037 -0.547,0.056 l 0,0 -0.138,0.015 -0.006,0 -0.014,0.005 0.005,-0.005 c -0.057,0.005 -0.115,0.01 -0.177,0.014 l 0,0 -0.004,0 -0.006,0.006 0,-0.006 c -0.057,0.006 -0.12,0.01 -0.177,0.015 l 0,0 -0.129,0.009 -0.004,0 c -0.092,0.005 -0.187,0.01 -0.283,0.015 l 0,0 c -0.187,0.01 -0.373,0.014 -0.57,0.019 l 0,0 -0.005,0 c -0.052,0 -0.105,0.005 -0.163,0.005 l 0,0 -0.004,0 -0.048,0 -0.005,0 c -0.063,0 -0.119,0.005 -0.182,0.005 l 0,0 -0.005,0 z m 3.544,-0.322 0.004,0 -0.004,0 z m -9.63,-0.478 0.006,0 -0.006,0 z m 67.133,-9.193 c -3.845,-0.058 -7.058,-1.216 -9.318,-3.083 l 0,0 c -0.018,-0.015 -0.033,-0.025 -0.047,-0.039 l 0,0 c -0.005,-0.005 -0.015,-0.009 -0.019,-0.015 l 0,0 c -1.92,-1.608 -3.141,-3.734 -3.462,-6.142 l 0,0 0,-0.01 6.823,0 0.086,0 0.005,0 0.259,0 0.004,0 0,0.005 c 0.196,0.713 0.594,1.307 1.121,1.8 l 0,0 c 0.369,0.345 0.794,0.637 1.269,0.876 l 0,0 c 0.22,0.111 0.45,0.206 0.685,0.297 l 0,0 0.009,0.006 0.005,0 0.124,0.047 0,0.005 0.124,0.038 0.005,0 c 0.436,0.149 0.881,0.259 1.336,0.335 l 0,0 0.005,0 c 0.072,0.015 0.138,0.019 0.206,0.029 l 0,0 c 0.067,0.01 0.134,0.019 0.196,0.029 l 0,0 0.005,0 c 0.125,0.014 0.239,0.024 0.364,0.033 l 0,0 c 0.11,0.01 0.225,0.015 0.335,0.019 l 0,0 0.004,0 0.101,0.005 0.005,0 c 0.082,0 0.154,0.005 0.235,0.005 l 0,0 0.004,0 c 0.125,0 0.239,-0.005 0.365,-0.005 l 0,0 0.004,0 0.015,-0.005 -0.005,0.005 c 0.086,-0.005 0.176,-0.009 0.263,-0.014 l 0,0 0.024,0 c 0.287,-0.014 0.56,-0.043 0.824,-0.076 l 0,0 0.019,-0.006 c 0.047,-0.004 0.096,-0.009 0.144,-0.019 l 0,0 c 0.243,-0.033 0.468,-0.081 0.684,-0.138 l 0,0 c 0.278,-0.068 0.536,-0.144 0.775,-0.235 l 0,0 c 0.111,-0.038 0.216,-0.081 0.317,-0.129 l 0,0 0.086,-0.043 0.005,0 0.009,-0.005 c 0.163,-0.082 0.321,-0.163 0.455,-0.254 l 0,0 c 0.067,-0.043 0.129,-0.091 0.191,-0.134 l 0,0 0.01,-0.009 c 0.124,-0.097 0.249,-0.197 0.345,-0.302 l 0,0 0.043,-0.043 c 0.33,-0.359 0.508,-0.766 0.517,-1.197 l 0,0 -0.005,0.009 0.005,-0.033 0,-0.005 0,-0.014 0,-0.015 0,-0.005 -0.005,-0.005 0.005,0 -0.009,-0.066 c -0.005,-0.091 -0.01,-0.177 -0.025,-0.259 l 0,0 0,-0.005 c -0.014,-0.081 -0.037,-0.157 -0.062,-0.235 l 0,0 -0.038,-0.128 0,-0.006 -0.005,-0.004 0.005,0 c -0.048,-0.115 -0.105,-0.221 -0.168,-0.321 l 0,0 -0.091,-0.125 -0.009,-0.009 c -0.191,-0.249 -0.45,-0.464 -0.761,-0.656 l 0,0 -0.006,0.004 0,-0.004 -0.009,-0.004 c -0.047,-0.029 -0.091,-0.054 -0.138,-0.082 l 0,0 -0.006,0 -0.023,-0.015 -0.072,-0.038 -0.005,0.005 0,-0.005 c -0.211,-0.11 -0.45,-0.201 -0.704,-0.297 l 0,0 -0.009,-0.005 c -0.489,-0.172 -1.054,-0.311 -1.686,-0.436 l 0,0 -0.004,0 -0.116,-0.023 -0.004,0 c -0.053,-0.01 -0.101,-0.02 -0.153,-0.029 l 0,0 -0.005,0 c -0.063,-0.014 -0.125,-0.024 -0.187,-0.033 l 0,0 -0.01,0 c -0.091,-0.014 -0.172,-0.029 -0.262,-0.043 l 0,0 -0.082,-0.02 0,0.005 -0.009,-0.005 -0.006,0 c -0.345,-0.052 -0.704,-0.1 -1.077,-0.149 l 0,0 -0.014,0 c -0.048,-0.004 -0.096,-0.013 -0.144,-0.018 l 0,0 -0.067,-0.01 -0.005,0 c -0.057,-0.005 -0.11,-0.014 -0.167,-0.019 l 0,0 -0.005,0 c -0.058,-0.005 -0.1,-0.015 -0.153,-0.019 l 0,0 -0.01,0 c -0.086,-0.01 -0.177,-0.019 -0.263,-0.029 l 0,0 -0.014,0 c -0.101,-0.009 -0.197,-0.023 -0.297,-0.033 l 0,0 -0.005,0 c -0.082,-0.01 -0.158,-0.019 -0.235,-0.029 l 0,0 0,0.004 -0.01,-0.004 -0.004,0 c -0.087,-0.005 -0.172,-0.015 -0.259,-0.024 l 0,0 c -0.134,-0.015 -0.272,-0.024 -0.412,-0.038 l 0,0 -0.004,0 -0.091,-0.01 -0.005,0 -0.057,-0.005 -0.02,-0.004 c -0.153,-0.014 -0.311,-0.029 -0.464,-0.043 l 0,0 -0.005,0 c -0.177,-0.02 -0.349,-0.034 -0.522,-0.053 l 0,0 c -0.043,-0.01 -0.091,-0.015 -0.134,-0.019 l 0,0 0.005,0.004 -0.019,-0.004 c -0.053,-0.005 -0.096,-0.01 -0.149,-0.019 l 0,0 0,0.004 -0.004,-0.004 -0.005,0 c -0.072,-0.006 -0.134,-0.015 -0.206,-0.025 l 0,0 -0.014,0 -0.005,0 c -0.091,-0.014 -0.183,-0.024 -0.278,-0.038 l 0,0 -0.005,0 -0.1,-0.015 -0.01,0 c -0.081,-0.009 -0.162,-0.023 -0.244,-0.037 l 0,0 -0.005,0.004 -0.005,-0.004 -0.005,0 c -0.128,-0.015 -0.253,-0.039 -0.378,-0.058 l 0,0 -0.009,0 c -0.321,-0.053 -0.642,-0.105 -0.953,-0.167 l 0,0 -0.01,-0.006 -0.076,-0.013 -0.005,0 c -0.067,-0.015 -0.129,-0.025 -0.197,-0.039 l 0,0 c -4.394,-0.924 -7.655,-2.988 -7.655,-7.943 l 0,0 c 0,-1.882 0.522,-3.467 1.412,-4.76 l 0,0 c 0.039,-0.047 0.072,-0.091 0.105,-0.144 l 0,0 0.005,-0.004 0.034,-0.048 c 0.071,-0.096 0.149,-0.196 0.225,-0.292 l 0,0 c 0.081,-0.096 0.158,-0.191 0.239,-0.287 l 0,0 0.015,-0.015 0.009,-0.009 0,0.005 0.053,-0.058 0.009,-0.01 0,-0.004 0.005,0 0.019,-0.025 0.005,-0.004 0,0.004 c 0.038,-0.042 0.077,-0.081 0.115,-0.119 l 0,0 0,-0.005 0.004,0 c 0.035,-0.033 0.068,-0.072 0.101,-0.105 l 0,0 c 0.13,-0.129 0.258,-0.254 0.393,-0.374 l 0,0 0.005,0 0.009,-0.014 0,0.005 0.034,-0.028 0.005,-0.006 c 0.057,-0.052 0.119,-0.1 0.177,-0.148 l 0,0 0.014,-0.009 0,-0.006 0.005,0 c 0.072,-0.062 0.144,-0.114 0.22,-0.176 l 0,0 c 0.062,-0.049 0.12,-0.096 0.187,-0.14 l 0,0 0,-0.004 0.005,0 c 0.249,-0.182 0.502,-0.349 0.771,-0.503 l 0,0 0,-0.005 0.004,0 0.005,-0.004 c 2.001,-1.188 4.535,-1.777 7.163,-1.777 l 0,0 c 1.388,0 2.643,0.153 3.759,0.436 l 0,0 c 2.001,0.503 3.577,1.426 4.759,2.652 l 0,0 0.052,0.053 c 0.019,-0.11 0.039,-0.22 0.058,-0.326 l 0,0 0.004,-0.009 c 0.02,-0.115 0.039,-0.239 0.063,-0.35 l 0,0 0,-0.004 c 0.009,-0.053 0.024,-0.11 0.038,-0.159 l 0,0 -0.004,0 0.004,-0.004 0,-0.005 0,-0.005 c 0.034,-0.177 0.077,-0.345 0.12,-0.508 l 0,0 -0.005,0 0.005,-0.004 0,-0.005 c 0.019,-0.072 0.043,-0.144 0.062,-0.216 l 0,0 c 0.043,-0.148 0.086,-0.291 0.134,-0.43 l 0,0 c 0.01,-0.029 0.019,-0.057 0.029,-0.082 l 0,0 c 0.062,-0.167 0.129,-0.335 0.196,-0.488 l 0,0 0.006,-0.005 0.43,0 1.283,0 0.364,0 0.005,0 0.129,0 0.005,0 0.977,0 1.436,0 0.532,0 0.162,0 0.01,0 0.885,0 0.351,0 0.009,0 -0.005,0.01 c -0.053,0.153 -0.11,0.326 -0.163,0.512 l 0,0 0.005,0 -0.005,0.005 0,0.005 c -0.066,0.234 -0.134,0.493 -0.196,0.766 l 0,0 0,0.004 c -0.024,0.097 -0.048,0.188 -0.067,0.287 l 0,0 c -0.048,0.207 -0.086,0.408 -0.129,0.619 l 0,0 0.004,0.004 -0.023,0.11 0.004,0 -0.004,0.005 0,0.005 c -0.058,0.335 -0.111,0.67 -0.154,1.001 l 0,0 0,0.01 c -0.038,0.316 -0.062,0.617 -0.072,0.9 l 0,0 c -0.005,0.091 -0.009,0.186 -0.014,0.272 l 0,0 0.005,-0.004 -0.005,0.052 0,0.743 0,0.402 0,0.004 0,0.378 0,0.006 0,0.66 0,0.149 0,0.004 0,2.696 0,0.23 0,0.077 0,0.004 0,0.948 0,0.182 0,0.005 0,0.052 0,0.221 0,0.206 0,0.004 0,0.269 0,0.679 0,0.015 0,0.23 0,0.004 0,1.279 0,0.153 0,0.005 0,1.389 0,0.21 0,0.005 0,0.259 0,0.176 0,0.006 0,1.608 0,0.392 0,0.006 0,0.196 0,0.004 0,0.01 0,0.01 0,0.675 c 0,1.848 -0.608,7.211 -7.297,8.982 l 0,0 c -0.148,0.038 -0.287,0.072 -0.441,0.11 l 0,0 0.006,0 -0.025,0.005 -0.072,0.015 c -0.196,0.042 -0.382,0.085 -0.588,0.124 l 0,0 -0.005,0 c -0.119,0.024 -0.244,0.038 -0.369,0.062 l 0,0 c -0.095,0.015 -0.196,0.033 -0.297,0.048 l 0,0 -0.009,0 -0.057,0.01 c -0.068,0.01 -0.134,0.019 -0.202,0.029 l 0,0 -0.009,0 -0.096,0.009 -0.005,0 c -0.047,0.009 -0.1,0.014 -0.148,0.019 l 0,0 -0.015,0 c -0.091,0.009 -0.177,0.019 -0.272,0.029 l 0,0 -0.006,0 c -0.114,0.015 -0.219,0.029 -0.339,0.038 l 0,0 -0.005,0 c -0.048,0.005 -0.106,0.005 -0.158,0.01 l 0,0 c -0.062,0.004 -0.124,0.01 -0.187,0.01 l 0,0 -0.005,0 c -0.153,0.013 -0.301,0.023 -0.459,0.033 l 0,0 -0.005,0 c -0.12,0.005 -0.239,0.005 -0.359,0.009 l 0,0 -0.005,0 c -0.11,0.005 -0.216,0.005 -0.325,0.01 l 0,0 -0.005,0 c -0.154,0 -0.302,0.01 -0.46,0.01 l 0,0 c -0.101,0 -0.196,-0.005 -0.297,-0.01 m 4.578,-15.834 0.004,0 c 0.221,0.087 0.427,0.182 0.627,0.283 l 0,0 c 0.029,0.014 0.053,0.029 0.082,0.043 l 0,0 c 0.019,0.009 0.038,0.019 0.057,0.028 l 0,0 c 0.029,0.014 0.063,0.034 0.096,0.049 l 0,0 c 0.019,0.014 0.038,0.023 0.058,0.033 l 0,0 c 0.023,0.014 0.043,0.024 0.062,0.033 l 0,0 c 0.058,0.034 0.12,0.072 0.177,0.105 l 0,0 0.005,0.006 0.076,0.048 c 0.005,-0.015 0.005,-0.025 0.005,-0.035 l 0,0 0,-0.095 0,-0.005 0,-0.292 0,-0.005 0,-0.21 0,-0.111 0,-0.013 0,-0.163 0,-0.006 0,-0.325 0,-0.034 0,-0.444 0,-0.006 0,-0.248 0,-0.01 0,-0.196 0,-0.398 c 0,-0.1 -0.009,-0.186 -0.015,-0.283 l 0,0 0,-0.004 c -0.009,-0.11 -0.009,-0.225 -0.023,-0.33 l 0,0 c -0.019,-0.173 -0.053,-0.331 -0.091,-0.489 l 0,0 0,-0.005 0,-0.004 -0.029,-0.14 0,-0.004 -0.004,-0.01 c -0.039,-0.143 -0.091,-0.287 -0.149,-0.421 l 0,0 c -0.072,-0.182 -0.158,-0.359 -0.254,-0.527 l 0,0 -0.005,-0.004 c -0.263,-0.46 -0.622,-0.858 -1.053,-1.197 l 0,0 -0.004,-0.006 c -1.418,-1.119 -3.63,-1.618 -6.129,-1.618 l 0,0 c -1.394,0 -2.543,0.259 -3.362,0.695 l 0,0 0,0.004 -0.004,0 -0.01,0.01 0,-0.005 c -0.115,0.063 -0.225,0.134 -0.331,0.202 l 0,0 0,0.004 -0.004,0 -0.01,0.01 0,-0.005 c -0.042,0.038 -0.091,0.072 -0.134,0.11 l 0,0 c -0.124,0.096 -0.239,0.201 -0.335,0.312 l 0,0 -0.004,0 -0.101,0.128 c -0.052,0.068 -0.101,0.134 -0.144,0.207 l 0,0 0,0.004 -0.005,0 c -0.029,0.053 -0.062,0.105 -0.086,0.158 l 0,0 -0.005,0.005 0,0.005 c -0.028,0.057 -0.047,0.115 -0.072,0.172 l 0,0 0.006,0 -0.006,0.005 0,0.01 -0.004,-0.005 -0.024,0.081 -0.005,0.01 0,0.004 c -0.039,0.149 -0.062,0.297 -0.066,0.45 l 0,0 -0.01,0.082 0.004,0.067 0,0.004 c 0.006,0.082 0.01,0.159 0.019,0.235 l 0,0 c 0.01,0.091 0.024,0.178 0.049,0.264 l 0,0 c 0.014,0.077 0.037,0.153 0.062,0.225 l 0,0 c 0.019,0.052 0.038,0.105 0.062,0.153 l 0,0 c 0.029,0.067 0.057,0.13 0.095,0.192 l 0,0 c 0.039,0.072 0.087,0.143 0.134,0.21 l 0,0 0.068,0.081 0.043,0.058 0.005,0 0.047,0.062 c 0.125,0.13 0.264,0.249 0.421,0.359 l 0,0 0.006,0.006 c 0.072,0.052 0.143,0.105 0.219,0.148 l 0,0 0.006,0.005 c 0.048,0.028 0.095,0.052 0.143,0.081 l 0,0 0.014,0.005 -0.004,0 0.095,0.052 c 0.053,0.029 0.111,0.053 0.163,0.082 l 0,0 0.006,-0.005 0,0.005 0.009,0 -0.005,0.005 c 0.11,0.043 0.22,0.095 0.34,0.143 l 0,0 0.005,0 c 0.258,0.1 0.536,0.191 0.842,0.273 l 0,0 c 0.096,0.024 0.202,0.052 0.302,0.077 l 0,0 0.005,0 0.009,0.004 0,-0.004 0.005,0.004 0.009,0 c 0.441,0.106 0.929,0.192 1.451,0.268 l 0,0 0.068,0.01 c 0.186,0.029 0.382,0.053 0.584,0.077 l 0,0 0.004,0 0.077,0.014 c 0.111,0.009 0.22,0.024 0.336,0.038 l 0,0 c 0.732,0.082 1.431,0.173 2.087,0.278 l 0,0 0.005,0 0.009,0.005 0.01,0 c 0.679,0.11 1.317,0.244 1.91,0.392 l 0,0 0.005,0.005 0.096,0.024 c 0.057,0.014 0.115,0.034 0.172,0.049 l 0,0 c 0.378,0.105 0.737,0.219 1.072,0.344 l 0,0 0.006,0.005 0.004,0 c 0.01,0.004 0.019,0.01 0.033,0.014 l 0,0 c 0.039,0.01 0.077,0.024 0.111,0.043 l 0,0 0,-0.004 0.005,0.004 z m 24.878,15.791 -0.005,0 c -0.043,-0.005 -0.086,-0.009 -0.134,-0.009 l 0,0 0.005,0 -0.043,-0.006 c -0.076,-0.004 -0.158,-0.019 -0.239,-0.023 l 0,0 -0.005,0 c -0.148,-0.02 -0.297,-0.039 -0.445,-0.063 l 0,0 c -0.178,-0.028 -0.359,-0.062 -0.537,-0.1 l 0,0 -0.004,0 -0.006,0 -0.004,0 c -0.139,-0.034 -0.273,-0.067 -0.412,-0.101 l 0,0 c -0.062,-0.019 -0.125,-0.038 -0.187,-0.053 l 0,0 c -0.153,-0.047 -0.307,-0.091 -0.454,-0.143 l 0,0 -0.006,0 c -0.076,-0.029 -0.138,-0.058 -0.21,-0.082 l 0,0 -0.005,-0.004 -0.086,-0.034 c -0.01,-0.004 -0.019,-0.01 -0.029,-0.01 l 0,0 -0.009,-0.004 c 0,0 -0.005,0 -0.01,-0.005 l 0,0 c -0.105,-0.038 -0.216,-0.086 -0.326,-0.129 l 0,0 -0.144,-0.072 0,0.004 -0.013,-0.009 c -0.225,-0.105 -0.451,-0.22 -0.671,-0.344 l 0,0 -0.019,-0.01 0.005,0 c -0.221,-0.124 -0.441,-0.263 -0.656,-0.407 l 0,0 c -0.072,-0.053 -0.144,-0.105 -0.211,-0.158 l 0,0 c -0.01,-0.009 -0.019,-0.015 -0.029,-0.019 l 0,0 -0.018,-0.015 0.004,0 c -0.019,-0.014 -0.043,-0.033 -0.067,-0.047 l 0,0 c -0.143,-0.11 -0.287,-0.225 -0.426,-0.345 l 0,0 c -0.052,-0.048 -0.11,-0.096 -0.163,-0.144 l 0,0 -0.134,-0.114 -0.005,-0.006 -0.014,-0.014 c -0.077,-0.071 -0.144,-0.149 -0.22,-0.225 l 0,0 c -0.015,-0.015 -0.029,-0.024 -0.038,-0.038 l 0,0 -0.006,-0.005 -0.009,-0.009 c -0.082,-0.082 -0.158,-0.163 -0.235,-0.254 l 0,0 c -0.038,-0.039 -0.072,-0.077 -0.105,-0.115 l 0,0 c -0.039,-0.044 -0.076,-0.087 -0.115,-0.129 l 0,0 c -0.048,-0.058 -0.1,-0.115 -0.149,-0.177 l 0,0 0,0.349 0,0.004 0,0.283 0,0.01 0,0.033 0,0.01 0,0.23 0,0.234 0,0.005 0,0.058 0,0.018 0,0.087 0,0.004 0,0.551 0,0.005 0,0.01 0,0.148 0,0.01 0,0.316 0,0.014 0,0.005 0,0.053 0,0.009 0,0.235 0,0.01 0,0.066 0,0.005 -6.851,0 0,-5.353 0,-0.038 0,-2.116 0,-0.163 0,-0.02 0,-0.004 0,-0.312 0,-0.009 0,-0.148 0,-0.006 0,-0.124 0,-0.081 0,-0.01 0,-0.138 0,-1.034 0,-0.192 0,-0.006 0,-0.062 0,-1.637 0,-0.138 0,-1.03 0,-0.239 0,-0.006 0,-0.133 0,-0.005 0,-0.556 0,-0.904 0,-0.087 0,-0.392 0,-0.01 0,-0.215 0,-1.068 0,-0.201 0,-0.167 0,-0.006 0,-0.239 0,-0.005 0,-0.258 0,-0.01 0,-0.091 0,-0.004 0,-0.192 0,-0.004 0,-0.341 0,-0.005 0,-0.005 0,-0.014 0,-0.158 0,-0.005 0,-0.058 0,-0.186 0,-0.033 0,-0.326 0,-0.014 0,-0.134 0,-0.01 0,-0.359 0,-0.005 0,-0.033 0,-0.048 0,-1.331 0,-0.187 0,-0.009 0,-0.422 0,-0.029 0,-0.005 0,-0.009 0,-0.148 0,-0.01 0,-0.039 0,-0.1 0,-0.709 0,-0.004 0,-0.24 0,-0.01 0,-0.598 0,-0.015 0,-0.215 0,-0.009 0,-0.632 0,-0.005 0,-0.311 0,-0.015 0,-0.109 0,-0.12 0,-0.006 0,-0.186 0,-0.01 0,-0.062 0,-0.153 0,-0.01 0,-0.009 0,-0.043 0,-0.264 0,-0.01 0,-0.602 0,-0.01 0,-0.028 0,-0.01 0,-0.153 0,-0.015 0,-0.028 0,-0.005 0,-0.187 0,-0.005 0,-0.158 0,-0.005 0,-0.129 0,-0.005 0,-0.11 0,-0.134 0,-0.019 0,-0.407 0,-0.019 0,-0.101 0,-0.033 0,-0.096 0,-0.005 0,-0.105 0,-0.378 0,-0.034 0,-0.005 0.005,0 0.023,0 0.307,0 0.005,0 0.124,0 0.005,0 0.019,0 0.254,0 0.005,0 0.024,0 0.033,0 0.006,0 0.128,0 0.188,0 0.124,0 0.182,0 0.129,0 0.005,0 0.359,0 0.326,0 0.004,0 0.302,0 0.024,0 0.22,0 0.015,0 0.081,0 0.004,0 0.02,0 0.555,0 0.015,0 0.091,0 0.219,0 0.006,0 0.095,0 0.014,0 3.261,0 0,1.174 0,0.033 0,0.134 0,0.613 0,0.157 0,0.01 0,0.407 0,0.01 0,0.483 0,3.692 0,0.019 0,0.349 0,0.388 0,0.02 0,0.225 0,0.023 0,0.097 0,0.325 0,0.206 0,0.005 0,0.311 0,0.005 0,0.149 0,0.047 0,0.048 0,0.004 0,0.12 0,0.13 0,0.153 0,0.004 0,0.963 0,0.316 0,0.015 0,0.014 0,0.043 0,0.033 0,0.005 0,0.216 0,0.009 0,0.014 0,0.006 0,0.732 0,0.325 0,0.006 0,0.866 0,0.378 0,0.01 0,0.273 0,0.177 0,0.177 0,0.005 c 0,0.124 0.005,0.254 0.01,0.378 l 0,0 0.005,0.004 -0.005,0 c 0.005,0.188 0.015,0.374 0.024,0.566 l 0,0 0,0.01 c 0.005,0.099 0.009,0.196 0.019,0.297 l 0,0 c 0.062,0.89 0.205,1.766 0.493,2.57 l 0,0 0,0.005 0.048,0.125 0.052,0.115 0,0.004 0.006,0.005 -0.006,0 c 0.025,0.057 0.053,0.115 0.077,0.173 l 0,0 0.01,0.018 c 0.095,0.221 0.206,0.432 0.326,0.638 l 0,0 0.018,0.033 0.005,0 0,0.004 c 0.202,0.336 0.427,0.657 0.709,0.949 l 0,0 c 0.359,0.383 0.756,0.694 1.187,0.948 l 0,0 0.039,0.019 0.004,0.005 c 0.087,0.048 0.173,0.095 0.259,0.139 l 0,0 c 0.689,0.349 1.46,0.56 2.298,0.66 l 0,0 c 0.149,0.019 0.297,0.034 0.45,0.043 l 0,0 0.01,0 c 0.052,0.005 0.11,0.01 0.163,0.015 l 0,0 0.048,0 0.004,0 c 0.168,0.01 0.335,0.014 0.508,0.014 l 0,0 0.095,0 0.091,0 0.006,0 c 0.143,0 0.282,-0.004 0.425,-0.01 l 0,0 0.006,0 0.133,-0.004 c 0.082,-0.005 0.163,-0.01 0.24,-0.015 l 0,0 c 0.067,-0.004 0.129,-0.009 0.191,-0.014 l 0,0 0.006,0 c 0.076,-0.004 0.148,-0.01 0.224,-0.019 l 0,0 0.086,-0.005 0.005,0 0.009,-0.005 0,0.005 c 0.135,-0.015 0.269,-0.028 0.403,-0.043 l 0,0 0.005,0 0,0.148 0,0.096 0,0.005 0,0.187 0,0.023 0,0.048 0,0.006 0,0.406 0,0.187 0,0.005 0,0.483 0,0.12 0,0.005 0,0.144 0,0.004 0,0.608 0,0.005 0,0.728 0,0.058 0,0.004 0,1.422 0,0.058 0,0.004 0,0.068 0,0.009 0,0.689 0,0.025 0,0.095 0,0.005 0,1.312 -0.005,0 c -0.182,0.034 -0.364,0.057 -0.546,0.077 l 0,0 -0.014,0 c -0.087,0.009 -0.167,0.014 -0.258,0.023 l 0,0 -0.135,0.01 c -0.263,0.019 -0.522,0.029 -0.785,0.029 l 0,0 c -0.225,0 -0.45,-0.01 -0.68,-0.024 m -66.276,-3.581 0,2.925 -3.413,0 -1.355,0 -0.924,0 -1.212,0 0,-3.845 0,-1.072 0,-1.805 0,-0.546 0,-0.479 0,-0.01 0,-0.34 0,-0.679 0,-0.025 0,-8.345 0,-0.071 0,-3.175 0,-0.125 0,-0.004 0,-0.077 0,-0.809 0,-0.082 0,-0.004 0,-0.105 0,-15.576 2.677,0 0.009,0 0.536,0 0.005,0 0.206,0 0.014,0 0.192,0 0.01,0 0.005,0 0.033,0 0.01,0 0.2,0 0.221,0 0.004,0 0.149,0 0.005,0 1.115,0 0.259,0 0.445,0 0.087,0 0.024,0 0.359,0 0.005,0 0.487,0 0.169,0 0.004,0 0,0.005 0,0.096 0,0.009 0,0.019 0,0.024 0,0.192 0,0.004 0,0.005 0,0.01 0,0.206 0,0.01 0,0.095 0,0.01 0,0.215 0.005,0 -0.005,0.01 0,0.22 0,0.009 0,0.35 0,0.154 0,0.009 0,0.536 0,0.005 0,0.249 0,0.004 0,0.134 0,0.006 0,0.196 0.01,0.005 -0.01,0.004 0,0.005 0,0.603 0,0.015 0,0.057 0,0.005 0,0.512 0,0.173 0,0.004 0,0.273 0,0.168 0,0.005 0,5.209 0,0.258 0,0.006 0,0.248 0,0.872 0,0.11 0,0.004 0,0.111 0,0.005 0,0.416 0,0.067 0.058,-0.048 c 0.277,-0.268 0.569,-0.522 0.871,-0.761 l 0,0 c 0.805,-0.632 1.69,-1.158 2.638,-1.561 l 0,0 c 0.024,-0.01 0.043,-0.019 0.063,-0.028 l 0,0 0.062,-0.029 0.009,-0.005 c 0.034,-0.01 0.072,-0.024 0.105,-0.033 l 0,0 c 0.642,-0.259 1.312,-0.46 2.006,-0.599 l 0,0 c 0.043,-0.009 0.082,-0.014 0.12,-0.024 l 0,0 0.034,-0.01 -0.01,0.006 c 0.019,-0.006 0.039,-0.006 0.053,-0.01 l 0,0 c 0.474,-0.087 0.962,-0.144 1.451,-0.173 l 0,0 c 0.244,-0.019 0.483,-0.028 0.727,-0.028 l 0,0 c 0.221,0 0.436,0.004 0.652,0.014 l 0,0 c 0.052,0.005 0.1,0.009 0.153,0.014 l 0,0 0.005,0 0.062,0.005 0.019,0 0.005,0 0.01,0 c 1.038,0.077 2.049,0.278 3.011,0.599 l 0,0 0,-0.006 0.005,0.006 0.005,0 0.057,0.023 0.005,-0.004 0.058,0.019 c 0.105,0.038 0.21,0.081 0.316,0.119 l 0,0 0,-0.004 0.114,0.043 0.01,0.004 0.004,0 c 0.767,0.297 1.499,0.675 2.194,1.111 l 0,0 0,-0.004 0.01,0.01 0.004,0 0,0.004 0.134,0.077 0.101,0.067 c 0.267,0.177 0.527,0.368 0.78,0.564 l 0,0 0,-0.004 0.005,0.01 0.004,0 0,0.004 c 0.068,0.048 0.14,0.101 0.202,0.153 l 0,0 0.004,0.006 0.005,0 0,0.004 c 0.34,0.268 0.67,0.565 0.982,0.871 l 0,0 0.029,0.029 c 0.474,0.469 0.91,0.972 1.321,1.509 l 0,0 0.053,0.071 0.004,0.01 c 0.178,0.244 0.35,0.493 0.518,0.746 l 0,0 c 0.038,0.058 0.076,0.12 0.114,0.178 l 0,0 c 0.087,0.138 0.168,0.278 0.25,0.417 l 0,0 0.004,0.004 0.072,0.134 0.005,0 0,0.005 0.005,0.005 c 0.148,0.263 0.291,0.531 0.431,0.809 l 0,0 0.004,0.01 c 0.053,0.11 0.106,0.225 0.158,0.339 l 0,0 0.049,0.106 0.004,0.01 0.029,0.062 0,0.004 0.004,0.005 0.005,0.01 -0.005,0 c 0.039,0.081 0.068,0.158 0.101,0.234 l 0,0 0.005,0.005 -0.005,0 c 0.052,0.129 0.11,0.249 0.158,0.379 l 0,0 0.034,0.085 c 0.033,0.082 0.058,0.163 0.085,0.245 l 0,0 0,-0.004 0.006,0.019 0.004,0 0,0.008 0.019,0.049 0,0.005 c 0.034,0.095 0.072,0.191 0.106,0.287 l 0,0 c 0.067,0.21 0.134,0.421 0.197,0.637 l 0,0 0.023,0.085 0,0.006 0.004,0.004 -0.004,0 c 0.019,0.058 0.033,0.115 0.048,0.173 l 0,0 0,0.005 0.005,0.004 -0.005,0 c 0.024,0.082 0.043,0.159 0.063,0.235 l 0,0 0.004,0.019 c 0.048,0.187 0.091,0.364 0.129,0.555 l 0,0 0,0.006 c 0.154,0.722 0.259,1.474 0.317,2.24 l 0,0 c 0.004,0.063 0.009,0.129 0.009,0.187 l 0,0 0,0.009 c 0.024,0.336 0.033,0.67 0.033,1.015 l 0,0 c 0,0.159 -0.004,0.316 -0.009,0.474 l 0,0 0,0.005 0,0.01 0,0.033 -0.004,0.072 0.004,-0.004 -0.004,0.028 c -0.006,0.211 -0.02,0.426 -0.035,0.632 l 0,0 0,0.005 c -0.004,0.053 -0.004,0.105 -0.009,0.158 l 0,0 c -0.019,0.177 -0.038,0.354 -0.057,0.527 l 0,0 0,0.004 c -0.01,0.062 -0.015,0.12 -0.025,0.182 l 0,0 0.006,-0.005 -0.006,0.019 -0.004,0.029 0.004,0.005 -0.004,0 0,0.009 c -0.101,0.766 -0.254,1.513 -0.456,2.227 l 0,0 0,0.005 c -0.018,0.063 -0.037,0.119 -0.056,0.182 l 0,0 -0.01,0.029 -0.005,0.014 c -0.125,0.426 -0.268,0.837 -0.426,1.24 l 0,0 -0.038,0.091 -0.014,0.038 0,-0.004 -0.02,0.042 -0.052,0.125 0.004,0 -0.004,0.005 0,0.004 c -0.062,0.14 -0.125,0.288 -0.192,0.427 l 0,0 0.004,0 -0.004,0.004 0,0.006 c -0.115,0.248 -0.235,0.493 -0.364,0.737 l 0,0 -0.005,0.01 -0.009,0.019 -0.019,0.033 0,0.005 -0.005,0 -0.029,0.062 -0.024,0.043 c -0.034,0.063 -0.067,0.119 -0.1,0.182 l 0,0 -0.005,0.01 -0.067,0.11 c -0.12,0.211 -0.249,0.416 -0.378,0.622 l 0,0 -0.01,0.015 c -0.038,0.062 -0.077,0.119 -0.115,0.177 l 0,0 -0.005,0.004 c -0.201,0.297 -0.407,0.584 -0.622,0.858 l 0,0 -0.01,0.009 0,0.005 -0.004,0 c -0.049,0.067 -0.097,0.129 -0.149,0.191 l 0,0 c -0.646,0.795 -1.37,1.504 -2.154,2.121 l 0,0 -0.006,0 -0.004,0.005 c -0.187,0.144 -0.369,0.283 -0.56,0.417 l 0,0 c -0.049,0.033 -0.096,0.062 -0.144,0.096 l 0,0 -0.01,0.005 -0.028,0.024 -0.014,0.009 -0.039,0.024 c -0.426,0.287 -0.862,0.545 -1.321,0.771 l 0,0 0,0.005 -0.01,0.004 -0.105,0.054 -0.01,0.004 c -0.172,0.086 -0.349,0.163 -0.527,0.244 l 0,0 -0.062,0.029 -0.004,0 -0.01,0.004 c -1.532,0.661 -3.213,1.025 -4.966,1.025 l 0,0 c -3.356,0 -6.338,-1.35 -8.513,-3.576 m 7.547,-3.113 c 0.095,-0.005 0.182,-0.009 0.272,-0.014 l 0,0 0.005,0 c 0.072,-0.004 0.134,-0.01 0.202,-0.014 l 0,0 0.004,0 c 0.091,-0.005 0.186,-0.015 0.273,-0.025 l 0,0 0.01,0 c 0.057,-0.004 0.109,-0.019 0.167,-0.028 l 0,0 0.005,0 c 0.119,-0.015 0.23,-0.034 0.35,-0.053 l 0,0 0.004,0 0.005,-0.004 0,0.004 0.091,-0.019 0.005,0 c 0.283,-0.063 0.56,-0.148 0.838,-0.244 l 0,0 0.004,-0.005 0.005,0 0.043,-0.019 -0.009,0.005 c 0.062,-0.024 0.124,-0.048 0.191,-0.072 l 0,0 -0.009,0 0.043,-0.015 c 0.182,-0.076 0.354,-0.157 0.527,-0.244 l 0,0 0.004,0 0.005,-0.004 c 0.33,-0.168 0.656,-0.364 0.953,-0.584 l 0,0 0.004,0 0.006,-0.006 c 0.095,-0.072 0.191,-0.153 0.282,-0.224 l 0,0 0,-0.005 0.005,0 0.004,-0.01 0,0.005 c 0.565,-0.469 1.063,-1.02 1.475,-1.656 l 0,0 0.009,-0.015 0.082,-0.111 -0.004,0 0.004,-0.008 0.005,-0.005 0.01,-0.02 0,0.006 c 0.402,-0.647 0.713,-1.37 0.924,-2.155 l 0,0 c 0.014,-0.049 0.023,-0.096 0.038,-0.149 l 0,0 -0.005,0 0.005,-0.005 0,-0.004 c 0.072,-0.302 0.129,-0.603 0.173,-0.919 l 0,0 c 0.008,-0.058 0.018,-0.111 0.023,-0.169 l 0,0 0,-0.009 c 0.014,-0.125 0.029,-0.249 0.039,-0.373 l 0,0 0.004,-0.105 c 0.01,-0.082 0.01,-0.169 0.015,-0.25 l 0,0 0,-0.01 0,-0.052 0,-0.019 c 0.004,-0.086 0.014,-0.173 0.014,-0.259 l 0,0 c 0,-0.382 -0.024,-0.761 -0.072,-1.125 l 0,0 c -0.009,-0.014 -0.015,-0.033 -0.015,-0.052 l 0,0 0,-0.024 0.006,-0.005 c -0.039,-0.278 -0.086,-0.546 -0.149,-0.814 l 0,0 0,-0.005 -0.005,-0.014 c -0.009,-0.058 -0.023,-0.11 -0.038,-0.168 l 0,0 0,-0.004 c -0.033,-0.144 -0.076,-0.293 -0.12,-0.431 l 0,0 c -0.018,-0.062 -0.038,-0.12 -0.057,-0.178 l 0,0 0,-0.004 -0.024,-0.072 0,-0.005 -0.005,-0.01 c -0.043,-0.138 -0.095,-0.272 -0.148,-0.406 l 0,0 -0.005,-0.01 L 90,720.958 c -0.048,-0.12 -0.095,-0.24 -0.153,-0.355 l 0,0 0,-0.004 -0.048,-0.097 c -0.024,-0.052 -0.053,-0.101 -0.082,-0.148 l 0,0 -0.013,-0.029 -0.005,-0.015 -0.005,-0.004 0,-0.004 -0.024,-0.039 0,-0.005 -0.067,-0.115 -0.005,-0.014 -0.019,-0.034 -0.009,-0.019 -0.006,-0.005 0,-0.004 -0.004,-0.005 C 89.527,720 89.498,719.937 89.459,719.875 l 0,0 -0.004,-0.005 -0.058,-0.086 c -0.033,-0.048 -0.067,-0.101 -0.101,-0.149 l 0,0 -0.004,-0.009 -0.005,0 0,-0.005 c -0.057,-0.081 -0.101,-0.157 -0.158,-0.234 l 0,0 c -0.087,-0.12 -0.177,-0.235 -0.268,-0.345 l 0,0 -0.009,-0.01 -0.053,-0.067 -0.015,-0.019 c -0.052,-0.058 -0.095,-0.12 -0.144,-0.177 l 0,0 -0.004,0 0,-0.005 -0.005,-0.004 c -0.086,-0.091 -0.167,-0.173 -0.258,-0.264 l 0,0 -0.02,-0.019 c -0.134,-0.138 -0.283,-0.278 -0.431,-0.402 l 0,0 -0.133,-0.11 -0.006,-0.005 -0.004,0 c -0.283,-0.23 -0.584,-0.445 -0.9,-0.628 l 0,0 c -0.211,-0.119 -0.427,-0.229 -0.647,-0.324 l 0,0 -0.134,-0.054 c -0.062,-0.023 -0.119,-0.047 -0.177,-0.072 l 0,0 c -0.115,-0.043 -0.23,-0.085 -0.344,-0.124 l 0,0 -0.02,-0.004 -0.106,-0.029 c -0.099,-0.034 -0.19,-0.058 -0.291,-0.087 l 0,0 0,0.005 -0.01,-0.005 -0.005,0 c -0.062,-0.014 -0.119,-0.038 -0.181,-0.047 l 0,0 -0.025,-0.005 c -0.172,-0.038 -0.354,-0.063 -0.531,-0.086 l 0,0 c -0.11,-0.02 -0.225,-0.029 -0.34,-0.039 l 0,0 c -0.048,-0.004 -0.101,-0.004 -0.148,-0.004 l 0,0 c -0.106,-0.01 -0.216,-0.019 -0.321,-0.019 l 0,0 -0.01,0 -0.067,-0.006 c -0.215,0 -0.436,0.015 -0.646,0.039 l 0,0 0.005,0 -0.125,0.009 -0.11,0.02 -0.004,0 c -0.116,0.014 -0.226,0.038 -0.332,0.057 l 0,0 c -0.047,0.009 -0.095,0.015 -0.143,0.024 l 0,0 -0.01,0 -0.047,0.01 -0.005,0 c -0.086,0.019 -0.173,0.047 -0.254,0.072 l 0,0 -0.167,0.048 -0.014,0.004 c -0.078,0.019 -0.154,0.039 -0.225,0.062 l 0,0 -0.006,0 -0.004,0.005 c -0.115,0.034 -0.216,0.081 -0.326,0.129 l 0,0 c -1.22,0.489 -2.289,1.327 -3.098,2.414 l 0,0 -0.081,0.114 0,0.006 -0.005,0 -0.005,0.013 0,-0.004 c -0.076,0.109 -0.153,0.225 -0.225,0.335 l 0,0 -0.01,0.014 0.006,0 -0.006,0.005 c -0.066,0.106 -0.128,0.211 -0.19,0.316 l 0,0 -0.006,0.01 -0.014,0.023 c -0.101,0.182 -0.201,0.36 -0.292,0.551 l 0,0 0.005,0 -0.005,0.005 0,0.005 c -0.034,0.071 -0.067,0.149 -0.096,0.225 l 0,0 -0.062,0.139 c -0.052,0.124 -0.101,0.254 -0.149,0.378 l 0,0 -0.019,0.067 -0.004,0.005 -0.039,0.119 0,0.005 0,0.005 -0.004,0.009 -0.035,0.101 -0.004,0.015 0,0.004 c -0.072,0.231 -0.134,0.465 -0.192,0.699 l 0,0 0.006,0 -0.006,0.005 0,0.01 c -0.009,0.052 -0.023,0.105 -0.033,0.153 l 0,0 -0.019,0.082 0,0.004 c -0.024,0.12 -0.039,0.24 -0.058,0.364 l 0,0 0,0.005 c -0.018,0.124 -0.038,0.249 -0.052,0.374 l 0,0 c -0.014,0.138 -0.02,0.287 -0.029,0.43 l 0,0 -0.005,0.043 0.005,0 -0.005,0.01 0,0.005 c 0,0.071 -0.005,0.138 -0.009,0.216 l 0,0 0,0.008 c 0,0.068 -0.01,0.14 -0.01,0.207 l 0,0 0,0.004 c 0,0.053 0.01,0.096 0.01,0.149 l 0,0 0,0.005 c 0,0.11 0.009,0.211 0.014,0.316 l 0,0 0.005,0.139 c 0.004,0.081 0.01,0.167 0.019,0.249 l 0,0 c 0.005,0.056 0.014,0.114 0.024,0.172 l 0,0 c 0.019,0.191 0.043,0.383 0.081,0.569 l 0,0 0.02,0.087 0,0.004 c 0.023,0.115 0.052,0.221 0.076,0.331 l 0,0 0.015,0.053 c 0.014,0.062 0.023,0.124 0.042,0.186 l 0,0 c 0.053,0.196 0.115,0.393 0.187,0.584 l 0,0 c 0.025,0.068 0.043,0.14 0.067,0.206 l 0,0 0.005,0.01 0.048,0.11 0.043,0.101 0,-0.005 0.009,0.028 c 0.034,0.082 0.072,0.159 0.111,0.245 l 0,0 0,0.004 c 0.023,0.058 0.048,0.116 0.076,0.173 l 0,0 c 0.039,0.077 0.081,0.153 0.12,0.225 l 0,0 c 0.038,0.067 0.072,0.134 0.11,0.201 l 0,0 0.029,0.048 0.014,0.024 0,0.004 0.024,0.048 0.005,0 c 0.096,0.163 0.196,0.317 0.297,0.47 l 0,0 0.004,0 0,0.004 0.006,0.005 c 0.066,0.101 0.138,0.201 0.21,0.297 l 0,0 0.1,0.12 c 0.039,0.053 0.078,0.096 0.116,0.148 l 0,0 0,-0.004 0.004,0.009 0.005,0 0,0.005 0.11,0.129 0.005,0.005 c 0.048,0.052 0.091,0.105 0.139,0.158 l 0,0 0.077,0.081 0.004,0 0,0.005 0.01,0.005 -0.005,0 c 0.048,0.048 0.096,0.091 0.139,0.134 l 0,0 0.1,0.1 0.005,0.005 0.01,0.01 -0.005,0 0.124,0.119 0.12,0.096 0.005,0.005 c 0.062,0.052 0.125,0.101 0.178,0.153 l 0,0 0.004,-0.004 0,0.004 c 0.072,0.053 0.134,0.115 0.206,0.168 l 0,0 c 0.067,0.047 0.139,0.096 0.201,0.144 l 0,0 0.004,-0.005 0.111,0.077 c 0.062,0.043 0.12,0.081 0.182,0.119 l 0,0 0.004,0.005 c 0.063,0.039 0.12,0.081 0.188,0.115 l 0,0 0.09,0.048 0.087,0.048 c 0.085,0.043 0.167,0.09 0.258,0.134 l 0,0 0.005,0 0.004,0 -0.004,0.004 c 0.144,0.068 0.292,0.13 0.441,0.192 l 0,0 0.004,0 c 0.052,0.024 0.101,0.043 0.153,0.067 l 0,0 0,-0.005 0.144,0.057 c 0.115,0.044 0.234,0.072 0.354,0.11 l 0,0 0,-0.004 0.005,0.004 0.009,0 c 0.068,0.02 0.14,0.039 0.206,0.058 l 0,0 c 0.178,0.048 0.36,0.082 0.547,0.111 l 0,0 0.009,0 0.062,0.009 c 0.321,0.048 0.641,0.081 0.972,0.081 l 0,0 0.063,0 z m 30.528,-4.476 0.004,0 -0.004,0 z m -16.265,-2.864 0,0.005 0,-0.005 z m 83.766,-5.114 -0.814,-1.498 -0.196,-0.364 -0.111,-0.196 0,-0.01 -0.091,-0.157 0,-0.006 -0.081,-0.148 -0.124,-0.23 -0.014,0.034 -0.006,0.009 -0.004,0.01 -0.005,0 -0.096,0.177 -0.009,0.019 -0.623,1.15 -0.057,0.105 -0.005,0.009 -0.704,1.298 -2.016,-1.145 1.284,-2.145 0.225,-0.373 0.128,-0.221 0.01,-0.009 -0.32,0.009 -0.039,0 -0.004,0 -0.006,0 -2.772,0.082 0,-2.317 0.005,0 3.136,0.062 -1.618,-2.691 1.987,-1.173 1.35,2.466 0,-0.005 0.173,0.321 0.023,-0.048 0.01,-0.014 1.494,-2.72 0.168,0.096 0.004,0.005 0.005,0 0.105,0.062 0.01,0.005 0.962,0.559 0.115,0.068 0.01,0.004 0.637,0.374 -1.001,1.633 -0.077,0.125 -0.363,0.593 0.004,-0.005 -0.014,0.024 -0.197,0.321 0.815,-0.014 2.355,-0.048 0,2.317 -2.03,-0.057 -0.153,-0.005 -0.005,0 -0.181,-0.005 -0.01,0 -0.159,-0.005 -0.047,0 -0.149,-0.004 -0.019,0 -0.335,-0.015 -0.067,0 -0.015,0 0.025,0.038 0,0.006 0.066,0.109 0.01,0.015 0.11,0.191 0.006,0 0.143,0.244 0,-0.004 0.024,0.043 0.014,0.024 0.005,0.009 0.004,0.005 0.006,0.01 0.009,0.014 0.139,0.23 0.771,1.288 -0.005,0 0.177,0.287 0.005,0.01 0.134,0.225 0.005,0.004 -1.92,1.087 -0.091,0.053 -0.005,0.005 -0.11,-0.202 z m -85.097,-1.924 0,0.005 0,-0.005 z m -45.639,-1.585 0.004,0 -0.004,0 z m 127.107,-0.173 0.004,0 -0.004,0 z"
         id="path3030" /></clipPath><clipPath
       clipPathUnits="userSpaceOnUse"
       id="clipPath3060"><path
         d="M 0,0 612,0 612,792 0,792 0,0 z"
         id="path3062" /></clipPath><clipPath
       clipPathUnits="userSpaceOnUse"
       id="clipPath3068"><path
         d="m 25.5,366 171.753,0 0,-285.3534 -171.753,0 0,285.3534 z"
         id="path3070" /></clipPath><clipPath
       clipPathUnits="userSpaceOnUse"
       id="clipPath3072"><path
         d="m 26.5,81.647 169.753,0 0,283.353 -169.753,0 0,-283.353 z"
         id="path3074" /></clipPath><clipPath
       clipPathUnits="userSpaceOnUse"
       id="clipPath3076"><path
         d="m 68.233,246.292 -30.851,56.863 -10.882,-6.171 0,-66.411 3.622,-6.059 -3.622,0.103 0,-43.729 3.622,0.069 -3.622,-6.038 0,-65.571 10.882,-6.43 30.851,56.26 30.852,-56.26 40.533,23.592 -33.271,54.447 64.123,-1.214 0,46.585 -64.123,-1.814 33.271,55.654 -40.533,22.987 -30.852,-56.863 z"
         id="path3078" /></clipPath></defs><sodipodi:namedview
     pagecolor="#ffffff"
     bordercolor="#666666"
     borderopacity="1"
     objecttolerance="10"
     gridtolerance="10"
     guidetolerance="10"
     inkscape:pageopacity="0"
     inkscape:pageshadow="2"
     inkscape:window-width="1255"
     inkscape:window-height="949"
     id="namedview2818"
     showgrid="false"
     inkscape:zoom="0.67425131"
     inkscape:cx="892.23761"
     inkscape:cy="743.88036"
     inkscape:window-x="0"
     inkscape:window-y="25"
     inkscape:window-maximized="1"
     inkscape:current-layer="g2826" /><g
     id="g2826"
     inkscape:groupmode="layer"
     inkscape:label="TELUS-Spark-Media-Kit20130205"
     transform="matrix(1.25,0,0,-1.25,0,990)"><g
       id="g2898"
       transform="matrix(3.6917611,0,0,3.6917611,155.2516,746.12419)"><path
         d="M 0,0 0,1.637 0,0 z"
         style="fill:#2d9edf;fill-opacity:1;fill-rule:nonzero;stroke:none"
         id="path2900" /></g><g
       id="g2902"
       transform="matrix(3.6917611,0,0,3.6917611,184.72293,746.12309)"><path
         d="m 0,0 -2.915,0 0,-9.035 -1.975,0 0,9.035 -3.093,0 0,1.638 8.452,0 L 0,0 z"
         style="fill:#2d9edf;fill-opacity:1;fill-rule:nonzero;stroke:none"
         id="path2904" /></g><g
       id="g2906"
       transform="matrix(3.6917611,0,0,3.6917611,190.57289,712.7695)"><path
         d="m 0,0 0,10.672 5.943,0 -0.535,-1.637 -3.447,0 0,-2.768 3.447,0 0,-1.635 -3.447,0 0,-2.996 3.982,0 L 5.943,0 0,0 z"
         style="fill:#2d9edf;fill-opacity:1;fill-rule:nonzero;stroke:none"
         id="path2908" /></g><g
       id="g2910"
       transform="matrix(3.6917611,0,0,3.6917611,219.57648,712.7695)"><path
         d="m 0,0 0,10.672 1.959,0 0,-9.019 3.821,0 L 5.78,0 0,0 z"
         style="fill:#2d9edf;fill-opacity:1;fill-rule:nonzero;stroke:none"
         id="path2912" /></g><g
       id="g2922"
       transform="matrix(3.6917611,0,0,3.6917611,273.58399,716.54023)"><path
         d="m 0,0 c -0.743,-0.745 -1.846,-1.182 -3.431,-1.182 -1.508,0 -2.608,0.356 -3.321,1.052 -0.759,0.727 -1.051,1.846 -1.051,3.027 l 0,6.754 1.96,0 0,-6.624 c 0,-0.777 0.208,-1.408 0.63,-1.879 0.404,-0.436 1.036,-0.663 1.814,-0.663 0.907,0 1.538,0.242 1.943,0.663 0.405,0.439 0.567,1.038 0.567,1.781 l 0,6.722 1.959,0 0,-6.656 C 1.07,1.78 0.73,0.727 0,0"
         style="fill:#2d9edf;fill-opacity:1;fill-rule:nonzero;stroke:none"
         id="path2924" /></g><g
       id="g2926"
       transform="matrix(3.6917611,0,0,3.6917611,295.81688,712.17472)"><path
         d="m 0,0 c -1.506,0 -2.574,0.486 -3.286,0.972 l 0.793,1.441 c 0.584,-0.405 1.408,-0.811 2.411,-0.811 0.827,0 1.766,0.34 1.766,1.232 0,1.52 -2.591,1.797 -3.885,3.254 -0.422,0.47 -0.699,1.086 -0.699,1.911 0,1.587 1.249,2.932 3.484,2.932 1.133,0 2.04,-0.276 2.623,-0.601 L 3.173,8.582 C 2.348,9.036 1.555,9.326 0.681,9.326 -0.178,9.326 -0.857,8.954 -0.857,8.241 -0.857,6.268 3.755,6.38 3.755,3.06 3.755,1.182 2.105,0 0,0"
         style="fill:#2d9edf;fill-opacity:1;fill-rule:nonzero;stroke:none"
         id="path2928" /></g><path
       id="path2932"
       style="fill:#231f20;fill-opacity:1;fill-rule:nonzero;stroke:none"
       d="m 184.72293,746.12305 -10.76148,0 0,-33.35506 -7.29123,0 0,33.35506 -11.41862,0 0,6.0471 31.20277,0 -1.73144,-6.0471 z" /><path
       id="path2936"
       style="fill:#231f20;fill-opacity:1;fill-rule:nonzero;stroke:none"
       d="m 190.57289,712.76947 0,39.39847 21.94014,0 -1.9751,-6.04341 -12.7255,0 0,-10.21879 12.7255,0 0,-6.03603 -12.7255,0 0,-11.06052 14.7006,0 0,-6.03972 -21.94014,0 z" /><g
       id="g2938"
       transform="matrix(3.6917611,0,0,3.6917611,219.57648,712.76947)"><path
         d="m 0,0 0,10.672 1.959,0 0,-9.019 3.821,0 L 5.78,0 0,0 z"
         style="fill:#231f20;fill-opacity:1;fill-rule:nonzero;stroke:none"
         id="path2940" /></g><path
       id="path2944"
       style="fill:#231f20;fill-opacity:1;fill-rule:nonzero;stroke:none"
       d="m 273.58399,716.54023 c -2.74298,-2.75036 -6.81499,-4.36366 -12.66643,-4.36366 -5.56718,0 -9.62812,1.31427 -12.26034,3.88373 -2.80205,2.68391 -3.88004,6.81499 -3.88004,11.17496 l 0,24.93416 7.23585,0 0,-24.45423 c 0,-2.8685 0.76789,-5.198 2.32581,-6.93682 1.49147,-1.60961 3.82466,-2.44764 6.69685,-2.44764 3.34843,0 5.67793,0.89341 7.1731,2.44764 1.49516,1.62068 2.09322,3.83205 2.09322,6.57503 l 0,24.81602 7.23216,0 0,-24.57237 c 0,-4.48549 -1.25519,-8.37291 -3.95018,-11.05682" /><g
       id="g2946"
       transform="matrix(3.6917611,0,0,3.6917611,295.81688,712.17472)"><path
         d="m 0,0 c -1.506,0 -2.574,0.486 -3.286,0.972 l 0.793,1.441 c 0.584,-0.405 1.408,-0.811 2.411,-0.811 0.827,0 1.766,0.34 1.766,1.232 0,1.52 -2.591,1.797 -3.885,3.254 -0.422,0.47 -0.699,1.086 -0.699,1.911 0,1.587 1.249,2.932 3.484,2.932 1.133,0 2.04,-0.276 2.623,-0.601 L 3.173,8.582 C 2.348,9.036 1.555,9.326 0.681,9.326 -0.178,9.326 -0.857,8.954 -0.857,8.241 -0.857,6.268 3.755,6.38 3.755,3.06 3.755,1.182 2.105,0 0,0"
         style="fill:#231f20;fill-opacity:1;fill-rule:nonzero;stroke:none"
         id="path2948" /></g><g
       id="g2950"
       transform="matrix(3.6917611,0,0,3.6917611,203.21718,578.39712)"><path
         d="m 0,0 -1.433,0 0,0.645 3.781,0 L 2.138,0 0.788,0 0.788,-4.298 0,-4.298 0,0 z"
         style="fill:#231f20;fill-opacity:1;fill-rule:nonzero;stroke:none"
         id="path2952" /></g><g
       id="g2954"
       transform="matrix(3.6917611,0,0,3.6917611,215.31877,580.77719)"><path
         d="m 0,0 0.788,0 0,-2.085 2.505,0 0,2.085 0.787,0 0,-4.943 -0.787,0 0,2.191 -2.505,0 0,-2.191 L 0,-4.943 0,0 z"
         style="fill:#231f20;fill-opacity:1;fill-rule:nonzero;stroke:none"
         id="path2956" /></g><g
       id="g2958"
       transform="matrix(3.6917611,0,0,3.6917611,236.00444,580.77719)"><path
         d="M 0,0 2.618,0 2.4,-0.645 l -1.612,0 0,-1.448 1.597,0 0,-0.644 -1.597,0 0,-1.561 1.852,0 0,-0.645 -2.64,0 L 0,0 z"
         style="fill:#231f20;fill-opacity:1;fill-rule:nonzero;stroke:none"
         id="path2960" /></g><g
       id="g2962"
       transform="matrix(3.6917611,0,0,3.6917611,257.60494,580.77719)"><path
         d="M 0,0 1.027,0 3.068,-2.603 C 3.255,-2.843 3.42,-3.06 3.563,-3.278 l 0.015,0 C 3.57,-3.023 3.563,-2.693 3.563,-2.46 l 0,2.46 1.028,0 0,-4.943 -0.938,0 -2.123,2.708 c -0.18,0.24 -0.337,0.458 -0.51,0.683 l -0.015,0 C 1.027,-1.733 1.027,-2.04 1.027,-2.287 l 0,-2.656 L 0,-4.943 0,0 z"
         style="fill:#2d9edf;fill-opacity:1;fill-rule:nonzero;stroke:none"
         id="path2964" /></g><g
       id="g2966"
       transform="matrix(3.6917611,0,0,3.6917611,279.92385,580.77719)"><path
         d="m 0,0 2.858,0 -0.262,-0.832 -1.568,0 0,-1.178 1.568,0 0,-0.825 -1.568,0 0,-1.275 1.822,0 0,-0.833 -2.85,0 L 0,0 z"
         style="fill:#2d9edf;fill-opacity:1;fill-rule:nonzero;stroke:none"
         id="path2968" /></g><g
       id="g2970"
       transform="matrix(3.6917611,0,0,3.6917611,293.24372,580.77719)"><path
         d="M 0,0 1.148,0 2.041,-2.805 C 2.115,-3.038 2.176,-3.27 2.243,-3.533 l 0.022,0 c 0.068,0.255 0.143,0.495 0.225,0.728 L 3.136,-0.877 2.821,0 3.841,0 4.778,-2.73 C 4.876,-3 4.966,-3.263 5.033,-3.525 l 0.023,0 c 0.06,0.27 0.119,0.502 0.203,0.78 L 6.083,0 7.126,0 5.453,-4.98 l -0.877,0 -0.728,2.018 C 3.758,-2.708 3.661,-2.453 3.6,-2.22 l -0.014,0 C 3.518,-2.46 3.436,-2.708 3.353,-2.955 L 2.625,-4.98 1.77,-4.98 0,0 z"
         style="fill:#2d9edf;fill-opacity:1;fill-rule:nonzero;stroke:none"
         id="path2972" /></g><g
       id="g2974"
       transform="matrix(3.6917611,0,0,3.6917611,330.37952,565.99169)"><path
         d="m 0,0 c 0.27,-0.18 0.645,-0.345 1.095,-0.345 0.458,0 0.886,0.172 0.886,0.653 0,1.042 -2.153,0.914 -2.153,2.407 0,0.728 0.57,1.335 1.56,1.335 0.487,0 0.908,-0.113 1.163,-0.248 l 0,-0.712 C 2.183,3.278 1.801,3.383 1.41,3.383 1.036,3.383 0.668,3.232 0.668,2.79 c 0,-0.975 2.145,-0.863 2.145,-2.415 0,-0.863 -0.712,-1.388 -1.702,-1.388 -0.57,0 -1.081,0.165 -1.426,0.413 L 0,0 z"
         style="fill:#231f20;fill-opacity:1;fill-rule:nonzero;stroke:none"
         id="path2976" /></g><g
       id="g2978"
       transform="matrix(3.6917611,0,0,3.6917611,359.34471,563.63819)"><path
         d="m 0,0 c -0.518,-0.285 -1.028,-0.375 -1.508,-0.375 -1.568,0 -2.452,1.042 -2.452,2.49 0,1.425 1.02,2.573 2.565,2.573 0.533,0 0.983,-0.113 1.267,-0.248 l 0,-0.735 C -0.495,3.9 -0.893,4.02 -1.38,4.02 c -1.118,0 -1.74,-0.84 -1.74,-1.875 0,-1.095 0.652,-1.853 1.703,-1.853 0.48,0 0.855,0.135 1.2,0.33 L 0,0 z"
         style="fill:#231f20;fill-opacity:1;fill-rule:nonzero;stroke:none"
         id="path2980" /></g><path
       d="m 363.66407,580.77609 2.9091,0 0,-18.24838 -2.9091,0 0,18.24838 z"
       style="fill:#231f20;fill-opacity:1;fill-rule:nonzero;stroke:none"
       id="path2982" /><g
       id="g2984"
       transform="matrix(3.6917611,0,0,3.6917611,372.19536,580.77719)"><path
         d="M 0,0 2.617,0 2.4,-0.645 l -1.612,0 0,-1.448 1.596,0 0,-0.644 -1.596,0 0,-1.561 1.852,0 0,-0.645 -2.64,0 L 0,0 z"
         style="fill:#231f20;fill-opacity:1;fill-rule:nonzero;stroke:none"
         id="path2986" /></g><g
       id="g2988"
       transform="matrix(3.6917611,0,0,3.6917611,386.87269,580.77719)"><path
         d="m 0,0 0.772,0 2.167,-2.805 c 0.256,-0.33 0.451,-0.6 0.608,-0.84 l 0.016,0 c -0.009,0.262 -0.016,0.54 -0.016,0.847 l 0,2.798 0.788,0 0,-4.943 -0.697,0 -2.251,2.918 C 1.14,-1.71 0.952,-1.44 0.779,-1.207 l -0.015,0 C 0.779,-1.425 0.787,-1.68 0.787,-2.002 l 0,-2.941 L 0,-4.943 0,0 z"
         style="fill:#231f20;fill-opacity:1;fill-rule:nonzero;stroke:none"
         id="path2990" /></g><g
       id="g2992"
       transform="matrix(3.6917611,0,0,3.6917611,422.2896,563.63819)"><path
         d="m 0,0 c -0.518,-0.285 -1.028,-0.375 -1.508,-0.375 -1.567,0 -2.453,1.042 -2.453,2.49 0,1.425 1.021,2.573 2.566,2.573 0.532,0 0.983,-0.113 1.267,-0.248 l 0,-0.735 C -0.496,3.9 -0.893,4.02 -1.381,4.02 -2.498,4.02 -3.12,3.18 -3.12,2.145 c 0,-1.095 0.652,-1.853 1.702,-1.853 0.48,0 0.855,0.135 1.2,0.33 L 0,0 z"
         style="fill:#231f20;fill-opacity:1;fill-rule:nonzero;stroke:none"
         id="path2994" /></g><g
       id="g2996"
       transform="matrix(3.6917611,0,0,3.6917611,426.60859,580.77719)"><path
         d="M 0,0 2.618,0 2.4,-0.645 l -1.612,0 0,-1.448 1.598,0 0,-0.644 -1.598,0 0,-1.561 1.852,0 0,-0.645 -2.64,0 L 0,0 z"
         style="fill:#231f20;fill-opacity:1;fill-rule:nonzero;stroke:none"
         id="path2998" /></g><g
       id="g3000"
       transform="matrix(3.6917611,0,0,3.6917611,461.50127,563.63819)"><path
         d="m 0,0 c -0.518,-0.285 -1.028,-0.375 -1.508,-0.375 -1.568,0 -2.453,1.042 -2.453,2.49 0,1.425 1.02,2.573 2.566,2.573 0.532,0 0.982,-0.113 1.267,-0.248 l 0,-0.735 C -0.496,3.9 -0.893,4.02 -1.381,4.02 -2.498,4.02 -3.12,3.18 -3.12,2.145 c 0,-1.095 0.652,-1.853 1.702,-1.853 0.48,0 0.855,0.135 1.2,0.33 L 0,0 z"
         style="fill:#231f20;fill-opacity:1;fill-rule:nonzero;stroke:none"
         id="path3002" /></g><g
       id="g3004"
       transform="matrix(3.6917611,0,0,3.6917611,465.8199,580.77719)"><path
         d="M 0,0 2.617,0 2.4,-0.645 l -1.613,0 0,-1.448 1.597,0 0,-0.644 -1.597,0 0,-1.561 1.853,0 0,-0.645 -2.64,0 L 0,0 z"
         style="fill:#231f20;fill-opacity:1;fill-rule:nonzero;stroke:none"
         id="path3006" /></g><g
       id="g3008"
       transform="matrix(3.6917611,0,0,3.6917611,480.49723,580.77719)"><path
         d="m 0,0 0.772,0 2.167,-2.805 c 0.256,-0.33 0.451,-0.6 0.608,-0.84 l 0.016,0 c -0.009,0.262 -0.016,0.54 -0.016,0.847 l 0,2.798 0.788,0 0,-4.943 -0.697,0 -2.251,2.918 C 1.14,-1.71 0.952,-1.44 0.779,-1.207 l -0.015,0 C 0.779,-1.425 0.787,-1.68 0.787,-2.002 l 0,-2.941 L 0,-4.943 0,0 z"
         style="fill:#231f20;fill-opacity:1;fill-rule:nonzero;stroke:none"
         id="path3010" /></g><g
       id="g3012"
       transform="matrix(3.6917611,0,0,3.6917611,505.58349,578.39712)"><path
         d="m 0,0 -1.433,0 0,0.645 3.78,0 L 2.138,0 0.788,0 0.788,-4.298 0,-4.298 0,0 z"
         style="fill:#231f20;fill-opacity:1;fill-rule:nonzero;stroke:none"
         id="path3014" /></g><g
       id="g3016"
       transform="matrix(3.6917611,0,0,3.6917611,522.14399,572.24996)"><path
         d="M 0,0 C 0.247,0 0.427,0.045 0.592,0.135 0.818,0.27 0.967,0.51 0.967,0.84 0.967,1.118 0.862,1.357 0.645,1.493 0.51,1.598 0.315,1.665 0.007,1.665 l -0.427,0 L -0.42,0 0,0 z m -1.208,2.31 1.238,0 C 0.51,2.31 0.847,2.228 1.102,2.085 1.59,1.838 1.785,1.402 1.785,0.922 1.785,0.255 1.402,-0.18 0.81,-0.368 l 0,-0.015 c 0.15,-0.082 0.346,-0.352 0.607,-0.795 l 0.848,-1.455 -0.908,0 L 0.6,-1.32 c -0.24,0.427 -0.42,0.637 -0.555,0.667 l -0.465,0 0,-1.98 -0.788,0 0,4.943 z"
         style="fill:#231f20;fill-opacity:1;fill-rule:nonzero;stroke:none"
         id="path3018" /></g><g
       id="g3020"
       transform="matrix(3.6917611,0,0,3.6917611,534.63322,580.77719)"><path
         d="M 0,0 2.617,0 2.4,-0.645 l -1.612,0 0,-1.448 1.597,0 0,-0.644 -1.597,0 0,-1.561 1.852,0 0,-0.645 -2.64,0 L 0,0 z"
         style="fill:#231f20;fill-opacity:1;fill-rule:nonzero;stroke:none"
         id="path3022" /></g><path
       style="fill:#000000"
       d="M 269.1875 111.59375 C 267.8348 111.61381 266.395 111.67277 264.84375 111.75 C 252.71938 112.35365 242.83276 115.61437 235.59375 121.4375 C 233.33339 123.25575 230.95656 124.75 230.3125 124.75 C 229.66206 124.75 229.15625 122.51754 229.15625 119.75 L 229.15625 114.78125 L 212.5625 114.78125 L 195.96875 114.78125 L 195.96875 201.15625 L 195.96875 287.5 L 213.125 287.5 L 230.25 287.5 L 230.25 260.9375 C 230.25 246.32194 230.56875 234.375 230.9375 234.375 C 231.30624 234.375 233.46219 235.84248 235.75 237.65625 C 241.4708 242.19165 248.55641 245.04226 259.03125 247.03125 C 266.8911 248.52367 268.86097 248.53282 276.375 247.09375 C 287.50356 244.96241 293.65076 242.60454 301.0625 237.59375 C 323.75605 222.25153 334.55696 192.15101 328.1875 162.0625 C 324.1859 143.15942 310.36685 125.07874 294.25 117.625 C 283.91102 112.84341 278.65641 111.45334 269.1875 111.59375 z M 262.3125 144.28125 C 272.27081 144.15869 277.43816 146.293 284.5625 153.46875 C 289.78891 158.73285 291.31538 161.14405 293.21875 167.3125 C 294.48777 171.42515 295.53125 176.94049 295.53125 179.5625 C 295.53125 188.94725 290.02539 201.8979 283.9375 206.84375 C 282.70433 207.8456 280.51956 209.69116 279.0625 210.96875 C 277.60543 212.24634 274.59949 213.79641 272.40625 214.40625 C 264.25144 216.67369 250.28145 214.69161 246.28125 210.6875 C 245.21551 209.6207 243.20693 208.01905 241.84375 207.125 C 240.4806 206.23095 237.70594 202.1506 235.65625 198.0625 C 232.13284 191.03505 231.90625 189.99184 231.90625 179 C 231.90625 168.23716 232.13938 166.98714 235.03125 162.0625 C 241.60245 150.87225 251.51641 144.41414 262.3125 144.28125 z "
       transform="matrix(0.8,0,0,-0.8,0,792)"
       id="path12023" /><path
       style="fill:#000000"
       d="m 79.787497,594.70204 c -9.994165,2.0004 -13.50654,3.20375 -20.341428,6.969 -14.029363,7.72859 -22.418083,20.28792 -23.640522,35.39387 l -0.519695,6.42199 13.761008,0 13.761006,0 0.590479,-4.2975 c 0.808359,-5.88324 3.556339,-10.01159 9.274436,-13.93317 6.428665,-4.40891 11.096354,-5.6857 20.785754,-5.6857 13.486255,0 23.768495,4.01955 27.983885,10.93951 3.74829,6.15317 0.89399,14.65434 -5.9827,17.81872 -1.85488,0.85354 -4.5511,2.11747 -5.99161,2.80874 -1.44051,0.69127 -8.49173,2.43073 -15.669377,3.86546 -30.859537,6.16847 -43.353009,12.40959 -50.598646,25.27657 -3.368713,5.98224 -4.358913,11.10344 -3.968495,20.52458 0.451044,10.88407 3.075057,16.88319 10.670028,24.39424 5.74164,5.67819 12.115546,9.24544 21.95275,12.28617 5.769233,1.78329 8.454746,2.04136 21.206983,2.03785 15.652077,-0.004 19.341227,-0.7685 30.351947,-6.28735 5.69118,-2.85257 15.7566,-12.91715 18.64794,-18.64639 2.54405,-5.04107 4.94661,-14.04629 4.96738,-18.61859 l 0.0131,-2.87882 -14.15878,0 -14.15878,0 0,2.69266 c 0,5.41548 -4.91363,12.07279 -11.50401,15.58638 -2.56496,1.36748 -5.07425,1.65126 -14.601239,1.65126 -10.819829,0 -11.805367,-0.14813 -16.571135,-2.4907 -8.37674,-4.11751 -11.430182,-10.23449 -8.151151,-16.32925 2.733507,-5.08079 10.523247,-8.4944 26.934596,-11.80323 39.085199,-7.8803 52.897779,-17.22962 55.860239,-37.81012 2.55149,-17.72554 -4.85326,-33.35768 -20.14448,-42.52698 -6.05546,-3.63111 -10.76925,-5.15025 -22.59473,-7.2817 -11.670667,-2.10355 -17.956053,-2.12084 -28.164733,-0.0775 z"
       id="path11979" /><path
       style="fill:#000000"
       d="M 398.8125 110.9375 C 370.86976 111.36599 348.77524 124.08309 341.03125 145 C 336.84444 156.3088 336.09417 155.75 355.78125 155.75 L 372.875 155.75 L 375.40625 151.28125 C 377.33944 147.85474 379.59996 145.97709 385.09375 143.25 C 391.36555 140.13671 393.36045 139.6875 401.125 139.6875 C 408.62069 139.6875 411.00224 140.17156 416.375 142.8125 C 420.93406 145.05343 422.93719 146.7234 423.4375 148.71875 C 424.2661 152.02337 421.35878 156.46374 416.5 159.3125 C 413.23199 161.2286 398.58769 163.94725 382.34375 165.6875 C 357.73429 168.32399 343.42434 175.33056 337.375 187.625 C 333.64115 195.21359 333.11374 211.40395 336.34375 220.03125 C 341.21545 233.04347 355.66963 243.25208 373.8125 246.5625 C 376.69418 247.08825 384.0099 247.34665 390.09375 247.125 C 403.12895 246.65009 413.38299 243.78851 420.3125 238.6875 C 422.92347 236.76547 425.26014 235.41611 425.53125 235.6875 C 425.80236 235.95887 426.70535 238.14109 427.53125 240.53125 L 429.03125 244.875 L 444.84375 245.1875 L 460.625 245.5 L 459.84375 240.75 C 457.40264 226.10756 457.0635 219.53156 457.03125 186.1875 C 456.99315 146.83229 456.49635 142.44662 451.09375 133.21875 C 449.55549 130.59136 446.15241 126.53915 443.53125 124.21875 C 438.71053 119.9512 429.14874 114.80112 426 114.78125 C 425.057 114.7753 423.79671 114.31734 423.21875 113.75 C 422.64079 113.18268 417.20885 112.18414 411.125 111.53125 C 406.9188 111.07986 402.80432 110.87629 398.8125 110.9375 z M 424.125 184.09375 C 424.93197 184.05291 424.92292 185.54657 424.90625 190.3125 C 424.85874 203.89647 418.24823 211.64104 403.90625 214.90625 C 385.90914 219.00361 371.29147 215.29481 368.96875 206.03125 C 367.10492 198.5979 376.34746 193.34501 395.3125 191.125 C 407.6464 189.68122 419.0679 187.08352 422.46875 184.9375 C 423.24502 184.44766 423.75819 184.11231 424.125 184.09375 z "
       transform="matrix(0.8,0,0,-0.8,0,792)"
       id="path11977" /><path
       style="fill:#000000"
       d="m 558.26534,596.62818 c -4.42774,2.33227 -4.75381,3.55802 -2.01842,7.58746 1.25638,1.85075 2.28433,3.65117 2.28433,4.00095 0,0.34979 -2.28974,0.75551 -5.08831,0.90162 l -5.08831,0.26565 -0.26748,4.65041 -0.26748,4.6504 5.35579,0 c 2.94568,0 5.35579,0.20472 5.35579,0.45492 0,0.67171 -2.03201,4.19151 -3.42579,5.93408 -1.6187,2.02377 -0.78409,3.85763 2.73238,6.0037 3.80977,2.32508 4.98675,2.24093 6.00087,-0.42905 0.46148,-1.21495 1.51006,-3.23411 2.3302,-4.48702 l 1.49115,-2.27801 2.58803,4.48702 c 1.42342,2.4679 2.7996,4.48706 3.05819,4.48706 1.54711,0 7.34806,-4.08825 7.34806,-5.17858 0,-0.72006 -1.01232,-3.0383 -2.24961,-5.15164 l -2.24961,-3.84244 5.34685,0 5.34684,0 0,-4.87185 0,-4.87186 -4.86708,0 c -5.38962,0 -5.94151,-0.78918 -3.09723,-4.42895 2.82666,-3.61723 2.2739,-5.6024 -2.16046,-7.75889 l -3.9303,-1.91135 -2.64088,4.57866 -2.64089,4.57868 -1.61436,-2.94083 c -0.8879,-1.61746 -2.21168,-3.6745 -2.94174,-4.57122 -1.28646,-1.58013 -1.43107,-1.57578 -4.69053,0.14111 z"
       id="path11973" /><path
       style="fill:#000000"
       d="m 377.80145,598.95332 c -0.22234,1.83933 -0.47446,25.36724 -0.56027,52.28422 l -0.15603,48.93998 13.29221,0 13.29223,0 0,-4.47386 0,-4.47385 2.876,2.72725 c 1.5818,1.49999 5.61746,4.11113 8.96814,5.80254 5.5865,2.82005 6.74328,3.07529 13.93755,3.07529 l 7.84541,0 0,-13.55261 0,-13.55261 -7.37236,0 c -9.58024,0 -15.93993,-2.82052 -19.91936,-8.83427 -4.2171,-6.3729 -4.6286,-9.91869 -4.82593,-41.58386 l -0.18206,-29.21451 -13.39564,-0.24398 -13.39565,-0.24399 -0.40424,3.34426 z"
       id="path11971" /><path
       style="fill:#000000"
       d="m 444.81056,596.40029 c -0.23896,0.23919 -0.43448,32.86498 -0.43448,72.50176 l 0,72.06686 13.89108,-0.24394 13.89106,-0.24395 -0.11356,-37.86758 c -0.0625,-20.82717 0.18222,-37.86758 0.54375,-37.86758 0.36153,0 1.47412,1.09617 2.47244,2.43593 1.7266,2.31713 14.25525,16.48182 22.13334,25.0236 2.02199,2.19234 4.40488,4.89439 5.2953,6.00457 1.60797,2.00481 1.75074,2.01683 21.04848,1.77158 l 19.42955,-0.24692 -11.02277,-11.4799 c -24.49915,-25.51517 -26.94765,-28.17738 -26.85603,-29.20001 0.0525,-0.58535 4.1898,-7.41677 9.19412,-15.18094 8.44616,-13.10417 11.65898,-18.04963 25.08461,-38.61245 2.75276,-4.21616 5.00502,-8.111 5.00502,-8.65519 0,-0.7033 -5.02616,-0.91999 -17.37964,-0.74928 l -17.37964,0.24018 -3.41607,5.62514 c -1.87884,3.09382 -3.41607,5.75515 -3.41607,5.91406 0,0.15891 -1.93977,3.45263 -4.3106,7.31936 -2.37084,3.86674 -4.46147,7.3838 -4.64585,7.8157 -1.17831,2.76004 -9.1032,15.40083 -9.65525,15.40083 -0.37089,0 -3.15584,-2.80172 -6.18876,-6.22605 l -5.5144,-6.22604 -0.2787,-14.81151 -0.27872,-14.81149 -13.33186,-0.0658 c -7.33253,-0.0362 -13.52739,0.12989 -13.76635,0.36909 z"
       id="path11969" /></g></svg>